<svg xmlns="http://www.w3.org/2000/svg" xmlns:xlink="http://www.w3.org/1999/xlink" width="500" zoomAndPan="magnify" viewBox="0 0 375 374.999991" height="500" preserveAspectRatio="xMidYMid meet" version="1.0"><defs><g/><clipPath id="ad70180ce1"><path d="M 237 67.386719 L 246 67.386719 L 246 76 L 237 76 Z M 237 67.386719 " clip-rule="nonzero"/></clipPath><clipPath id="f5b66faa48"><path d="M 254 110 L 262.089844 110 L 262.089844 118 L 254 118 Z M 254 110 " clip-rule="nonzero"/></clipPath><clipPath id="282a82f5b1"><path d="M 105.507812 96 L 255.953125 96 L 255.953125 224.886719 L 105.507812 224.886719 Z M 105.507812 96 " clip-rule="nonzero"/></clipPath><clipPath id="a8021ec4b0"><path d="M 177.25 210.8125 C 177.984375 210.949219 178.746094 211.070312 179.5 211.1875 C 178.746094 211.078125 177.984375 210.949219 177.25 210.8125 Z M 255.046875 158.121094 C 255.035156 157.847656 255.019531 157.578125 255.007812 157.304688 C 254.964844 156.414062 254.898438 155.515625 254.816406 154.625 L 254.796875 154.382812 C 254.789062 154.300781 254.789062 154.21875 254.769531 154.144531 L 241.832031 154.144531 C 241.851562 154.273438 241.867188 154.410156 241.878906 154.550781 C 241.90625 154.796875 241.941406 155.046875 241.960938 155.300781 C 242.050781 156.101562 242.109375 156.910156 242.152344 157.726562 C 242.164062 157.929688 242.171875 158.128906 242.179688 158.332031 C 242.191406 158.527344 242.199219 158.71875 242.207031 158.910156 L 242.207031 158.949219 C 242.207031 158.964844 242.207031 158.984375 242.207031 158.992188 C 242.21875 159.242188 242.21875 159.488281 242.226562 159.746094 C 242.226562 159.957031 242.226562 160.167969 242.226562 160.390625 C 242.234375 160.453125 242.234375 160.519531 242.226562 160.582031 C 242.226562 160.832031 242.226562 161.085938 242.226562 161.34375 C 242.226562 161.554688 242.21875 161.777344 242.207031 161.996094 C 242.207031 162.144531 242.207031 162.300781 242.199219 162.445312 C 242.191406 162.601562 242.191406 162.75 242.179688 162.90625 C 242.171875 163.082031 242.164062 163.253906 242.152344 163.421875 C 242.144531 163.558594 242.136719 163.6875 242.125 163.816406 C 242.117188 163.980469 242.109375 164.15625 242.097656 164.328125 C 242.097656 164.347656 242.089844 164.355469 242.089844 164.375 C 242.078125 164.523438 242.070312 164.679688 242.0625 164.824219 C 242.050781 164.871094 242.050781 164.917969 242.042969 164.960938 C 242.042969 165.007812 242.042969 165.054688 242.035156 165.101562 C 242.023438 165.246094 242.007812 165.394531 241.996094 165.53125 C 241.980469 165.667969 241.960938 165.816406 241.953125 165.953125 C 241.953125 166.007812 241.941406 166.066406 241.933594 166.109375 C 241.914062 166.292969 241.894531 166.476562 241.878906 166.660156 C 241.839844 166.992188 241.796875 167.3125 241.75 167.644531 C 241.738281 167.699219 241.730469 167.753906 241.722656 167.808594 C 241.675781 168.1875 241.613281 168.570312 241.546875 168.949219 C 241.546875 168.964844 241.546875 168.964844 241.546875 168.984375 L 241.527344 169.050781 C 241.382812 170.003906 241.199219 170.941406 240.996094 171.859375 C 240.988281 171.894531 240.976562 171.921875 240.96875 171.941406 C 240.859375 172.457031 240.738281 172.96875 240.601562 173.476562 C 240.554688 173.640625 240.519531 173.816406 240.472656 173.972656 C 240.445312 174.082031 240.417969 174.183594 240.382812 174.28125 C 240.269531 174.695312 240.160156 175.101562 240.03125 175.503906 C 239.941406 175.816406 239.839844 176.136719 239.738281 176.449219 C 239.738281 176.460938 239.730469 176.46875 239.730469 176.476562 C 239.617188 176.828125 239.5 177.175781 239.378906 177.507812 C 239.277344 177.816406 239.167969 178.113281 239.050781 178.414062 C 239.039062 178.460938 239.023438 178.515625 238.996094 178.5625 C 238.941406 178.738281 238.867188 178.921875 238.800781 179.085938 C 238.726562 179.289062 238.644531 179.480469 238.570312 179.683594 C 238.542969 179.726562 238.527344 179.785156 238.507812 179.839844 C 238.425781 180.023438 238.359375 180.195312 238.289062 180.371094 C 238.234375 180.5 238.175781 180.617188 238.121094 180.746094 C 237.984375 181.070312 237.847656 181.390625 237.699219 181.710938 C 237.589844 181.949219 237.480469 182.199219 237.371094 182.429688 C 237.339844 182.492188 237.3125 182.546875 237.285156 182.613281 C 237.1875 182.839844 237.074219 183.0625 236.957031 183.28125 C 236.847656 183.519531 236.726562 183.75 236.617188 183.980469 C 236.515625 184.183594 236.40625 184.382812 236.304688 184.578125 C 236.128906 184.90625 235.957031 185.230469 235.773438 185.550781 C 235.632812 185.808594 235.488281 186.0625 235.332031 186.320312 C 235.183594 186.597656 235.019531 186.871094 234.863281 187.128906 C 234.53125 187.660156 234.203125 188.195312 233.863281 188.71875 C 229.941406 194.714844 224.808594 199.839844 218.800781 203.742188 C 218.792969 203.742188 218.792969 203.742188 218.792969 203.742188 C 218.5625 203.886719 218.324219 204.035156 218.09375 204.191406 C 218.050781 204.21875 217.992188 204.253906 217.949219 204.273438 C 217.699219 204.421875 217.460938 204.578125 217.214844 204.722656 C 216.945312 204.886719 216.679688 205.042969 216.40625 205.199219 C 215.597656 205.660156 214.78125 206.109375 213.945312 206.53125 C 213.714844 206.640625 213.496094 206.753906 213.273438 206.863281 C 213.171875 206.917969 213.070312 206.964844 212.972656 207.011719 C 212.730469 207.121094 212.492188 207.230469 212.253906 207.339844 C 211.988281 207.46875 211.722656 207.589844 211.457031 207.707031 C 211.382812 207.746094 211.308594 207.773438 211.234375 207.800781 C 211.117188 207.855469 210.988281 207.910156 210.867188 207.964844 C 210.757812 208.011719 210.648438 208.054688 210.527344 208.09375 C 210.289062 208.203125 210.042969 208.304688 209.792969 208.40625 C 209.371094 208.570312 208.949219 208.734375 208.515625 208.882812 C 208.011719 209.074219 207.507812 209.25 207.003906 209.414062 C 206.992188 209.425781 206.992188 209.425781 206.984375 209.425781 C 206.746094 209.507812 206.507812 209.589844 206.257812 209.65625 C 206.011719 209.738281 205.761719 209.820312 205.515625 209.882812 C 205.292969 209.957031 205.054688 210.023438 204.835938 210.085938 C 204.660156 210.132812 204.488281 210.1875 204.320312 210.234375 C 204.101562 210.296875 203.878906 210.34375 203.652344 210.40625 C 203.652344 210.40625 203.640625 210.40625 203.632812 210.40625 C 203.613281 210.417969 203.59375 210.417969 203.566406 210.425781 C 203.402344 210.472656 203.226562 210.515625 203.054688 210.554688 C 202.824219 210.609375 202.59375 210.664062 202.375 210.71875 C 202.363281 210.71875 202.347656 210.71875 202.335938 210.730469 C 202.246094 210.746094 202.164062 210.765625 202.070312 210.785156 C 201.980469 210.8125 201.898438 210.820312 201.804688 210.847656 C 201.546875 210.902344 201.289062 210.957031 201.035156 211.003906 C 201.015625 211.011719 200.980469 211.023438 200.949219 211.023438 C 200.851562 211.039062 200.75 211.070312 200.640625 211.085938 C 200.484375 211.125 200.308594 211.152344 200.144531 211.179688 C 200.097656 211.1875 200.050781 211.195312 200.003906 211.195312 C 199.960938 211.207031 199.914062 211.214844 199.867188 211.226562 C 199.859375 211.234375 199.847656 211.234375 199.847656 211.234375 C 199.675781 211.261719 199.5 211.296875 199.335938 211.316406 C 199.152344 211.34375 198.96875 211.378906 198.785156 211.410156 C 198.664062 211.425781 198.554688 211.445312 198.433594 211.464844 C 198.417969 211.464844 198.398438 211.464844 198.390625 211.472656 C 198.277344 211.480469 198.179688 211.5 198.078125 211.519531 C 197.996094 211.527344 197.910156 211.535156 197.828125 211.546875 C 197.820312 211.546875 197.800781 211.546875 197.78125 211.546875 C 197.746094 211.5625 197.71875 211.5625 197.691406 211.5625 C 197.65625 211.5625 197.617188 211.574219 197.582031 211.574219 C 197.5 211.59375 197.40625 211.601562 197.316406 211.621094 C 197.203125 211.628906 197.085938 211.636719 196.964844 211.65625 C 196.78125 211.683594 196.589844 211.703125 196.398438 211.71875 C 196.3125 211.738281 196.222656 211.746094 196.128906 211.757812 C 196.039062 211.765625 195.945312 211.765625 195.863281 211.777344 C 195.746094 211.785156 195.632812 211.804688 195.515625 211.8125 C 195.378906 211.820312 195.230469 211.839844 195.09375 211.847656 C 195.011719 211.859375 194.925781 211.867188 194.855469 211.867188 C 194.671875 211.886719 194.476562 211.894531 194.292969 211.902344 C 194.128906 211.921875 193.953125 211.933594 193.789062 211.941406 C 193.585938 211.960938 193.382812 211.96875 193.171875 211.976562 C 193 211.988281 192.816406 211.988281 192.640625 211.996094 C 192.722656 211.996094 192.824219 211.996094 192.90625 211.988281 C 192.714844 211.996094 192.519531 212.003906 192.320312 212.003906 C 192.347656 212.003906 192.367188 212.003906 192.382812 212.003906 C 192.429688 212.003906 192.464844 212.003906 192.519531 212.003906 L 192.421875 212.003906 C 192.308594 212.003906 192.199219 212.003906 192.097656 212.003906 C 192 212.015625 191.886719 212.015625 191.785156 212.015625 L 191.777344 212.015625 C 191.722656 212.023438 191.667969 212.023438 191.621094 212.023438 C 191.335938 212.023438 191.0625 212.03125 190.785156 212.03125 C 190.519531 212.03125 190.253906 212.023438 189.996094 212.023438 C 189.933594 212.023438 189.867188 212.023438 189.804688 212.023438 C 189.648438 212.015625 189.492188 212.015625 189.335938 212.003906 C 189.269531 212.003906 189.214844 212.003906 189.160156 212.003906 C 189.023438 212.003906 188.875 211.996094 188.730469 211.988281 C 188.492188 211.988281 188.25 211.96875 188.003906 211.960938 C 187.765625 211.949219 187.515625 211.933594 187.277344 211.914062 C 187.175781 211.902344 187.066406 211.894531 186.964844 211.886719 C 186.890625 211.886719 186.820312 211.886719 186.746094 211.867188 C 186.679688 211.867188 186.609375 211.859375 186.535156 211.859375 C 186.441406 211.847656 186.351562 211.839844 186.257812 211.832031 C 186.113281 211.820312 185.972656 211.8125 185.828125 211.792969 C 185.523438 211.765625 185.222656 211.730469 184.917969 211.691406 C 184.632812 211.664062 184.347656 211.628906 184.0625 211.59375 L 184.046875 211.59375 C 184.035156 211.59375 184.027344 211.582031 184.019531 211.582031 C 183.953125 211.574219 183.898438 211.574219 183.835938 211.5625 C 183.613281 211.535156 183.386719 211.507812 183.164062 211.464844 C 183.089844 211.453125 183.015625 211.445312 182.945312 211.4375 C 182.933594 211.4375 182.917969 211.425781 182.90625 211.425781 C 182.90625 211.425781 182.90625 211.425781 182.898438 211.425781 C 182.890625 211.425781 182.878906 211.425781 182.863281 211.417969 C 182.675781 211.398438 182.492188 211.363281 182.308594 211.335938 C 182.125 211.308594 181.941406 211.269531 181.757812 211.242188 C 181.632812 211.214844 181.503906 211.195312 181.382812 211.167969 C 181.261719 211.152344 181.152344 211.132812 181.042969 211.105469 C 181.035156 211.105469 181.023438 211.105469 181.015625 211.105469 C 180.886719 211.078125 180.75 211.058594 180.621094 211.023438 C 180.574219 211.011719 180.527344 211.003906 180.484375 210.996094 C 180.246094 210.949219 180.003906 210.894531 179.777344 210.847656 C 179.34375 210.757812 178.921875 210.65625 178.5 210.546875 C 177.289062 210.25 176.09375 209.910156 174.917969 209.535156 C 174.597656 209.433594 174.285156 209.332031 173.972656 209.222656 C 173.863281 209.175781 173.742188 209.140625 173.632812 209.101562 C 173.347656 209.003906 173.074219 208.902344 172.796875 208.800781 C 172.621094 208.734375 172.4375 208.664062 172.273438 208.597656 C 172.171875 208.5625 172.070312 208.523438 171.980469 208.488281 C 171.695312 208.378906 171.417969 208.269531 171.144531 208.148438 C 171.144531 208.148438 171.136719 208.148438 171.136719 208.148438 C 170.941406 208.066406 170.742188 207.984375 170.546875 207.890625 C 170.289062 207.78125 170.035156 207.671875 169.785156 207.550781 C 169.472656 207.421875 169.160156 207.277344 168.859375 207.136719 C 168.574219 207 168.28125 206.863281 167.996094 206.714844 C 167.867188 206.652344 167.746094 206.597656 167.617188 206.523438 C 167.460938 206.449219 167.296875 206.367188 167.140625 206.285156 C 166.5625 205.992188 166.011719 205.6875 165.449219 205.375 C 165.222656 205.238281 164.984375 205.109375 164.753906 204.960938 C 162.511719 203.648438 160.382812 202.179688 158.378906 200.546875 C 158.167969 200.371094 157.957031 200.195312 157.738281 200.023438 C 157.710938 199.996094 157.683594 199.976562 157.65625 199.9375 C 157.417969 199.738281 157.167969 199.535156 156.929688 199.324219 C 156.5625 198.992188 156.195312 198.664062 155.828125 198.332031 C 155.542969 198.066406 155.257812 197.800781 154.984375 197.523438 C 154.863281 197.414062 154.746094 197.292969 154.625 197.183594 C 154.039062 196.597656 153.457031 196.007812 152.898438 195.394531 C 152.734375 195.210938 152.566406 195.027344 152.402344 194.851562 C 152.238281 194.660156 152.070312 194.476562 151.914062 194.28125 C 151.832031 194.191406 151.75 194.089844 151.667969 194 C 151.648438 193.980469 151.640625 193.960938 151.621094 193.941406 C 160.207031 189.976562 169.5 185.257812 179.078125 179.949219 C 179.757812 179.570312 180.429688 179.195312 181.097656 178.820312 C 174.585938 181.425781 168.25 183.785156 162.226562 185.871094 C 159.792969 186.714844 157.417969 187.515625 155.09375 188.269531 C 152.90625 188.964844 150.777344 189.636719 148.710938 190.25 C 148.691406 190.222656 148.675781 190.195312 148.65625 190.179688 L 148.648438 190.179688 C 148.664062 190.195312 148.683594 190.222656 148.703125 190.261719 C 148.628906 190.277344 148.546875 190.296875 148.480469 190.324219 C 145.589844 191.179688 142.816406 191.960938 140.179688 192.648438 C 138.628906 193.050781 137.132812 193.417969 135.679688 193.757812 C 121.578125 197.074219 112.136719 197.46875 110.757812 194.144531 C 109.382812 190.839844 116.296875 184.457031 128.554688 176.863281 C 129.824219 176.082031 131.136719 175.292969 132.503906 174.484375 C 134.828125 173.117188 137.304688 171.730469 139.90625 170.308594 C 139.914062 170.363281 139.921875 170.40625 139.933594 170.453125 C 136.683594 173.53125 134.476562 176.191406 133.542969 178.277344 C 133.203125 179.039062 133.027344 179.71875 133.027344 180.316406 C 133.027344 180.746094 133.121094 181.132812 133.304688 181.472656 C 133.632812 182.097656 134.257812 182.546875 135.15625 182.832031 C 136.996094 183.429688 139.980469 183.355469 143.882812 182.640625 C 143.882812 182.65625 143.882812 182.640625 143.882812 182.65625 C 143.953125 182.640625 144.011719 182.628906 144.082031 182.621094 C 147.976562 181.847656 152.75 180.507812 158.179688 178.644531 C 159.085938 178.332031 160.015625 178.003906 160.960938 177.664062 C 166.875 175.542969 173.476562 172.859375 180.546875 169.710938 C 181.363281 169.34375 182.183594 168.964844 183.007812 168.589844 L 182.824219 170.765625 L 182.503906 174.558594 C 182.695312 174.851562 183.082031 174.960938 183.421875 174.824219 L 186.753906 173.390625 C 186.78125 173.390625 186.800781 173.382812 186.808594 173.375 C 186.992188 173.273438 187.121094 173.109375 187.1875 172.925781 L 187.1875 172.90625 L 189.234375 166.175781 C 193.421875 164.640625 197.570312 163.042969 201.703125 161.398438 C 202.082031 161.363281 202.449219 161.566406 202.605469 161.933594 L 202.640625 162.050781 L 202.613281 162.796875 L 202.007812 177.027344 L 201.785156 182.117188 C 201.988281 182.59375 202.550781 182.8125 203.027344 182.613281 L 207.71875 180.601562 C 208.003906 180.480469 208.195312 180.234375 208.261719 179.96875 L 211.035156 168.828125 C 211.144531 168.570312 211.347656 168.34375 211.628906 168.222656 L 215.414062 166.605469 C 215.6875 166.488281 215.816406 166.175781 215.699219 165.898438 L 214.128906 162.226562 C 214.019531 161.960938 213.695312 161.832031 213.421875 161.949219 L 213.015625 162.125 C 212.90625 162.105469 212.816406 162.035156 212.761719 161.921875 L 212.75 161.90625 L 213.550781 158.71875 L 214.101562 156.476562 C 214.191406 156.304688 214.332031 156.164062 214.503906 156.066406 L 217.316406 154.84375 C 219.4375 154.21875 224.789062 150.363281 226.285156 147.175781 C 226.3125 147.046875 226.304688 146.910156 226.25 146.789062 C 226.195312 146.652344 226.101562 146.550781 225.984375 146.488281 C 222.660156 145.367188 216.167969 146.578125 214.246094 147.679688 L 211.429688 148.867188 L 211.410156 148.867188 L 211.390625 148.875 C 211.21875 148.929688 211.023438 148.929688 210.851562 148.875 L 205.992188 146.109375 L 205.984375 146.082031 C 205.9375 145.972656 205.945312 145.855469 206.011719 145.761719 L 206.425781 145.585938 C 206.699219 145.46875 206.820312 145.15625 206.707031 144.890625 L 205.136719 141.214844 C 205.027344 140.941406 204.707031 140.8125 204.441406 140.933594 L 200.648438 142.558594 C 200.363281 142.675781 200.058594 142.667969 199.804688 142.566406 L 197.5625 141.289062 L 189.839844 136.882812 L 189.792969 136.863281 L 189.75 136.835938 L 189.730469 136.828125 L 189.722656 136.828125 L 189.703125 136.816406 L 189.691406 136.808594 L 189.65625 136.808594 L 189.648438 136.800781 L 189.628906 136.800781 L 189.621094 136.789062 L 189.59375 136.789062 L 189.574219 136.78125 L 189.566406 136.78125 L 189.554688 136.773438 L 189.519531 136.773438 L 189.519531 136.761719 L 189.417969 136.761719 L 189.410156 136.753906 L 189.371094 136.753906 L 189.363281 136.761719 L 189.214844 136.761719 L 189.199219 136.773438 L 189.1875 136.773438 L 189.179688 136.78125 L 189.160156 136.78125 L 189.152344 136.789062 L 189.113281 136.789062 L 189.097656 136.800781 L 189.070312 136.808594 L 189.042969 136.808594 L 189.03125 136.816406 L 189.015625 136.828125 L 189.003906 136.835938 L 184.292969 138.847656 C 183.824219 139.039062 183.597656 139.601562 183.808594 140.078125 L 187.628906 143.4375 L 198.351562 152.824219 L 198.914062 153.320312 L 198.96875 153.421875 C 199.125 153.796875 199.011719 154.199219 198.730469 154.449219 C 194.6875 156.292969 190.667969 158.203125 186.671875 160.167969 L 180.371094 157 C 180.179688 156.898438 179.941406 156.890625 179.730469 156.972656 L 176.398438 158.40625 C 176.058594 158.542969 175.882812 158.910156 175.957031 159.261719 L 181.363281 163.59375 C 177.359375 164.761719 173.347656 165.863281 169.480469 166.84375 C 165.257812 167.9375 161.207031 168.882812 157.527344 169.617188 C 152.082031 170.71875 147.453125 171.363281 144.257812 171.328125 C 142.761719 171.269531 140.925781 170.308594 140.015625 168.894531 C 140.007812 168.882812 140.007812 168.875 139.996094 168.855469 C 139.554688 166.164062 139.328125 163.402344 139.328125 160.582031 C 139.328125 156.515625 139.804688 152.558594 140.695312 148.765625 C 143.558594 136.578125 150.757812 126.054688 160.574219 118.929688 C 160.996094 118.617188 161.421875 118.316406 161.859375 118.019531 C 167.71875 114.027344 174.441406 111.21875 181.695312 109.929688 L 181.695312 96.902344 C 156.230469 100.511719 135.550781 119.03125 128.8125 143.355469 C 127.277344 148.828125 126.472656 154.613281 126.472656 160.582031 C 126.472656 163.660156 126.691406 166.699219 127.105469 169.664062 C 127.167969 170.066406 127.222656 170.480469 127.296875 170.894531 C 127.363281 171.308594 127.433594 171.730469 127.507812 172.144531 C 127.519531 172.199219 127.527344 172.253906 127.546875 172.308594 L 126.230469 173.117188 C 124.632812 174.109375 123.148438 175.0625 121.75 175.992188 C 114.835938 180.582031 110.335938 184.464844 108.023438 187.902344 C 108.003906 187.929688 107.988281 187.957031 107.96875 187.984375 C 107.453125 188.765625 107.050781 189.515625 106.757812 190.25 C 105.609375 192.8125 105.222656 195.402344 105.726562 197.917969 C 108.015625 209.472656 128.132812 215.253906 151.097656 211.1875 C 151.117188 211.195312 151.136719 211.214844 151.152344 211.234375 C 151.703125 211.664062 152.273438 212.085938 152.84375 212.511719 C 152.960938 212.601562 153.082031 212.683594 153.210938 212.777344 C 153.652344 213.105469 154.109375 213.417969 154.570312 213.730469 C 154.773438 213.871094 154.964844 213.996094 155.15625 214.125 C 157.316406 215.566406 159.566406 216.882812 161.886719 218.054688 C 162.273438 218.238281 162.652344 218.421875 163.027344 218.609375 C 163.074219 218.636719 163.128906 218.652344 163.175781 218.679688 C 163.503906 218.835938 163.84375 218.992188 164.183594 219.148438 C 164.550781 219.324219 164.9375 219.488281 165.3125 219.644531 L 165.78125 219.847656 C 166.03125 219.957031 166.277344 220.058594 166.527344 220.160156 C 166.800781 220.269531 167.078125 220.378906 167.351562 220.488281 C 167.976562 220.730469 168.589844 220.96875 169.214844 221.179688 C 169.464844 221.269531 169.710938 221.363281 169.960938 221.453125 C 170.363281 221.582031 170.757812 221.71875 171.164062 221.839844 C 171.375 221.902344 171.566406 221.976562 171.777344 222.03125 C 172.449219 222.242188 173.136719 222.4375 173.816406 222.628906 C 174.09375 222.703125 174.367188 222.777344 174.644531 222.851562 C 174.871094 222.90625 175.109375 222.96875 175.351562 223.023438 C 175.671875 223.105469 176.003906 223.191406 176.332031 223.253906 C 176.652344 223.335938 176.984375 223.410156 177.316406 223.472656 C 177.847656 223.59375 178.378906 223.695312 178.914062 223.796875 C 179.335938 223.878906 179.757812 223.953125 180.171875 224.015625 C 180.851562 224.136719 181.53125 224.238281 182.210938 224.328125 C 182.457031 224.355469 182.714844 224.390625 182.960938 224.421875 C 183.238281 224.449219 183.511719 224.484375 183.789062 224.511719 C 184 224.539062 184.203125 224.558594 184.414062 224.574219 C 184.78125 224.613281 185.148438 224.648438 185.515625 224.675781 C 185.929688 224.714844 186.339844 224.742188 186.746094 224.761719 C 186.835938 224.777344 186.9375 224.777344 187.03125 224.777344 C 187.230469 224.796875 187.425781 224.804688 187.628906 224.816406 C 188.066406 224.832031 188.507812 224.851562 188.949219 224.871094 C 189.179688 224.871094 189.398438 224.871094 189.628906 224.878906 C 190.015625 224.886719 190.398438 224.886719 190.785156 224.886719 C 191.105469 224.886719 191.417969 224.886719 191.742188 224.878906 C 191.90625 224.878906 192.0625 224.878906 192.226562 224.871094 C 192.519531 224.871094 192.804688 224.859375 193.082031 224.851562 C 193.414062 224.832031 193.734375 224.824219 194.054688 224.804688 C 194.191406 224.796875 194.332031 224.796875 194.46875 224.777344 C 194.679688 224.777344 194.882812 224.761719 195.09375 224.75 C 195.285156 224.730469 195.488281 224.722656 195.679688 224.703125 C 196.210938 224.667969 196.753906 224.621094 197.289062 224.566406 C 197.582031 224.539062 197.882812 224.503906 198.179688 224.464844 C 198.628906 224.421875 199.070312 224.363281 199.507812 224.300781 C 199.65625 224.28125 199.792969 224.265625 199.933594 224.246094 C 200.234375 224.199219 200.527344 224.152344 200.824219 224.109375 C 201.078125 224.070312 201.320312 224.035156 201.566406 223.988281 C 201.824219 223.941406 202.089844 223.898438 202.347656 223.851562 C 202.761719 223.777344 203.183594 223.695312 203.59375 223.613281 C 204.175781 223.492188 204.753906 223.363281 205.332031 223.234375 C 205.414062 223.21875 205.488281 223.199219 205.570312 223.179688 C 205.644531 223.160156 205.71875 223.144531 205.800781 223.125 C 205.929688 223.097656 206.054688 223.0625 206.183594 223.023438 C 206.433594 222.96875 206.691406 222.90625 206.9375 222.839844 C 207.046875 222.8125 207.167969 222.785156 207.277344 222.757812 C 207.867188 222.601562 208.453125 222.4375 209.03125 222.261719 C 209.078125 222.242188 209.125 222.234375 209.167969 222.214844 L 209.253906 222.199219 C 209.804688 222.03125 210.335938 221.867188 210.878906 221.683594 L 210.886719 221.683594 C 210.933594 221.675781 210.96875 221.65625 211.023438 221.636719 C 211.078125 221.621094 211.132812 221.601562 211.199219 221.582031 C 211.375 221.527344 211.539062 221.464844 211.714844 221.40625 C 211.878906 221.34375 212.054688 221.289062 212.21875 221.234375 L 212.226562 221.234375 C 212.4375 221.152344 212.648438 221.078125 212.859375 220.996094 C 213.191406 220.875 213.523438 220.757812 213.851562 220.628906 C 213.898438 220.609375 213.933594 220.601562 213.972656 220.582031 C 214.117188 220.527344 214.257812 220.472656 214.402344 220.417969 C 214.613281 220.332031 214.835938 220.242188 215.046875 220.160156 C 215.109375 220.121094 215.183594 220.09375 215.257812 220.066406 C 215.550781 219.949219 215.855469 219.820312 216.15625 219.691406 C 216.167969 219.683594 216.175781 219.683594 216.195312 219.671875 C 216.269531 219.644531 216.339844 219.609375 216.414062 219.570312 C 216.691406 219.460938 216.964844 219.332031 217.242188 219.214844 C 217.351562 219.167969 217.460938 219.113281 217.570312 219.066406 C 217.664062 219.019531 217.765625 218.976562 217.855469 218.929688 C 217.910156 218.910156 217.964844 218.882812 218.011719 218.855469 C 218.1875 218.773438 218.359375 218.691406 218.535156 218.609375 C 218.636719 218.5625 218.730469 218.515625 218.828125 218.46875 C 219.140625 218.3125 219.464844 218.15625 219.777344 218 C 219.785156 218 219.785156 218 219.785156 218 C 220.097656 217.835938 220.410156 217.671875 220.730469 217.503906 C 221.042969 217.339844 221.355469 217.175781 221.667969 217 C 221.96875 216.835938 222.28125 216.660156 222.59375 216.484375 C 222.898438 216.3125 223.199219 216.136719 223.503906 215.953125 C 223.734375 215.816406 223.972656 215.679688 224.203125 215.53125 C 224.78125 215.183594 225.347656 214.824219 225.917969 214.449219 C 226.011719 214.394531 226.113281 214.328125 226.203125 214.265625 C 226.277344 214.21875 226.351562 214.171875 226.414062 214.117188 C 226.496094 214.070312 226.578125 214.015625 226.664062 213.960938 C 226.699219 213.933594 226.734375 213.90625 226.773438 213.886719 C 227.046875 213.703125 227.3125 213.519531 227.582031 213.328125 C 227.617188 213.308594 227.636719 213.28125 227.671875 213.261719 C 227.828125 213.152344 227.984375 213.042969 228.132812 212.941406 C 228.445312 212.722656 228.746094 212.492188 229.058594 212.261719 C 229.152344 212.207031 229.234375 212.132812 229.324219 212.070312 C 229.40625 212.015625 229.480469 211.960938 229.554688 211.894531 C 229.691406 211.792969 229.820312 211.691406 229.949219 211.59375 C 230.132812 211.445312 230.328125 211.308594 230.5 211.160156 C 230.675781 211.023438 230.851562 210.886719 231.015625 210.757812 C 231.21875 210.589844 231.410156 210.433594 231.601562 210.277344 C 231.703125 210.195312 231.796875 210.121094 231.886719 210.039062 C 232.082031 209.882812 232.273438 209.71875 232.457031 209.554688 C 232.613281 209.425781 232.769531 209.285156 232.925781 209.160156 C 233.027344 209.074219 233.125 208.984375 233.226562 208.902344 C 233.402344 208.753906 233.566406 208.597656 233.742188 208.433594 C 234 208.210938 234.246094 207.972656 234.503906 207.746094 C 234.789062 207.476562 235.074219 207.210938 235.359375 206.9375 C 235.496094 206.808594 235.625 206.679688 235.761719 206.550781 C 235.855469 206.449219 235.945312 206.367188 236.039062 206.265625 C 236.285156 206.027344 236.523438 205.789062 236.773438 205.539062 C 236.773438 205.523438 236.78125 205.523438 236.789062 205.511719 C 237.03125 205.265625 237.269531 205.027344 237.496094 204.777344 C 237.753906 204.511719 237.992188 204.246094 238.25 203.980469 C 238.261719 203.960938 238.277344 203.941406 238.296875 203.925781 C 238.507812 203.695312 238.710938 203.457031 238.921875 203.226562 L 238.921875 203.21875 C 239.039062 203.097656 239.152344 202.96875 239.261719 202.839844 C 239.316406 202.777344 239.371094 202.722656 239.425781 202.648438 L 239.617188 202.425781 C 239.628906 202.410156 239.636719 202.410156 239.648438 202.390625 C 239.785156 202.234375 239.914062 202.078125 240.042969 201.921875 C 240.28125 201.648438 240.519531 201.351562 240.75 201.070312 C 240.976562 200.785156 241.207031 200.5 241.4375 200.214844 C 241.511719 200.113281 241.585938 200.03125 241.648438 199.929688 C 241.683594 199.894531 241.710938 199.847656 241.75 199.8125 C 241.894531 199.617188 242.050781 199.414062 242.199219 199.222656 C 242.402344 198.949219 242.601562 198.679688 242.796875 198.40625 C 242.859375 198.324219 242.925781 198.230469 242.988281 198.148438 C 243.007812 198.121094 243.015625 198.09375 243.035156 198.074219 C 243.136719 197.945312 243.226562 197.808594 243.328125 197.671875 C 243.375 197.605469 243.421875 197.535156 243.464844 197.460938 C 243.550781 197.339844 243.640625 197.230469 243.714844 197.109375 C 243.777344 197.027344 243.84375 196.9375 243.898438 196.855469 C 244.117188 196.542969 244.328125 196.21875 244.539062 195.898438 C 244.640625 195.734375 244.753906 195.578125 244.851562 195.421875 C 244.953125 195.257812 245.054688 195.101562 245.15625 194.933594 C 245.238281 194.796875 245.320312 194.667969 245.402344 194.539062 C 245.542969 194.328125 245.660156 194.117188 245.789062 193.914062 C 245.816406 193.859375 245.855469 193.8125 245.882812 193.757812 C 246.066406 193.457031 246.25 193.144531 246.433594 192.832031 C 246.441406 192.824219 246.449219 192.804688 246.449219 192.796875 C 246.476562 192.757812 246.496094 192.722656 246.523438 192.683594 C 246.605469 192.527344 246.691406 192.390625 246.773438 192.246094 C 246.855469 192.097656 246.9375 191.949219 247.019531 191.804688 C 247.039062 191.757812 247.066406 191.722656 247.085938 191.675781 C 247.183594 191.5 247.285156 191.316406 247.378906 191.140625 C 247.664062 190.636719 247.929688 190.132812 248.1875 189.617188 C 248.222656 189.535156 248.261719 189.460938 248.296875 189.386719 C 248.472656 189.03125 248.644531 188.679688 248.8125 188.332031 C 248.839844 188.285156 248.855469 188.242188 248.882812 188.183594 C 248.882812 188.183594 248.882812 188.167969 248.894531 188.15625 C 249.023438 187.890625 249.152344 187.625 249.269531 187.359375 C 249.324219 187.230469 249.390625 187.101562 249.445312 186.972656 C 249.582031 186.652344 249.730469 186.339844 249.867188 186.019531 C 249.929688 185.871094 249.996094 185.734375 250.050781 185.585938 C 250.152344 185.339844 250.253906 185.082031 250.363281 184.84375 C 250.4375 184.648438 250.507812 184.476562 250.574219 184.28125 C 250.648438 184.097656 250.730469 183.914062 250.804688 183.730469 C 250.8125 183.703125 250.820312 183.675781 250.832031 183.648438 C 250.949219 183.335938 251.070312 183.023438 251.1875 182.710938 C 251.234375 182.554688 251.300781 182.402344 251.355469 182.246094 C 251.363281 182.214844 251.371094 182.179688 251.382812 182.152344 C 251.484375 181.878906 251.574219 181.601562 251.675781 181.324219 C 251.683594 181.296875 251.695312 181.269531 251.703125 181.242188 C 251.769531 181.050781 251.832031 180.875 251.894531 180.683594 C 251.960938 180.472656 252.023438 180.269531 252.089844 180.058594 C 252.21875 179.636719 252.355469 179.214844 252.476562 178.78125 C 252.539062 178.582031 252.601562 178.378906 252.660156 178.167969 C 252.722656 177.957031 252.777344 177.753906 252.832031 177.542969 C 252.90625 177.265625 252.980469 176.992188 253.054688 176.714844 C 253.089844 176.550781 253.136719 176.386719 253.183594 176.210938 C 253.273438 175.824219 253.375 175.429688 253.457031 175.027344 C 253.511719 174.804688 253.566406 174.578125 253.613281 174.339844 C 253.660156 174.144531 253.695312 173.953125 253.742188 173.757812 C 253.769531 173.601562 253.796875 173.457031 253.832031 173.300781 C 253.890625 173.023438 253.945312 172.75 254 172.464844 C 254 172.457031 254 172.457031 254 172.445312 C 254 172.4375 254 172.4375 254 172.4375 C 254.109375 171.921875 254.191406 171.410156 254.273438 170.894531 C 254.3125 170.691406 254.339844 170.480469 254.367188 170.269531 C 254.414062 169.957031 254.457031 169.644531 254.503906 169.332031 C 254.539062 169.03125 254.585938 168.710938 254.625 168.398438 C 254.660156 168.121094 254.6875 167.847656 254.714844 167.570312 C 254.742188 167.367188 254.753906 167.15625 254.78125 166.945312 C 254.796875 166.800781 254.808594 166.652344 254.824219 166.496094 C 254.835938 166.347656 254.851562 166.191406 254.863281 166.046875 C 254.863281 165.980469 254.871094 165.917969 254.878906 165.84375 C 254.878906 165.816406 254.878906 165.78125 254.890625 165.753906 C 254.917969 165.367188 254.945312 164.988281 254.964844 164.613281 C 254.980469 164.410156 254.992188 164.21875 255 164.015625 C 255 163.960938 255.007812 163.90625 255.007812 163.851562 C 255.019531 163.660156 255.027344 163.464844 255.035156 163.273438 C 255.046875 163.023438 255.054688 162.757812 255.0625 162.5 C 255.089844 161.867188 255.101562 161.226562 255.101562 160.582031 C 255.101562 159.757812 255.082031 158.9375 255.046875 158.121094 Z M 255.046875 158.121094 " clip-rule="nonzero"/></clipPath><clipPath id="591246a01d"><path d="M 177.25 210.8125 C 177.984375 210.949219 178.746094 211.070312 179.5 211.1875 C 178.746094 211.078125 177.984375 210.949219 177.25 210.8125 Z M 255.046875 158.121094 C 255.035156 157.847656 255.019531 157.578125 255.007812 157.304688 C 254.964844 156.414062 254.898438 155.515625 254.816406 154.625 L 254.796875 154.382812 C 254.789062 154.300781 254.789062 154.21875 254.769531 154.144531 L 241.832031 154.144531 C 241.851562 154.273438 241.867188 154.410156 241.878906 154.550781 C 241.90625 154.796875 241.941406 155.046875 241.960938 155.300781 C 242.050781 156.101562 242.109375 156.910156 242.152344 157.726562 C 242.164062 157.929688 242.171875 158.128906 242.179688 158.332031 C 242.191406 158.527344 242.199219 158.71875 242.207031 158.910156 L 242.207031 158.949219 C 242.207031 158.964844 242.207031 158.984375 242.207031 158.992188 C 242.21875 159.242188 242.21875 159.488281 242.226562 159.746094 C 242.226562 159.957031 242.226562 160.167969 242.226562 160.390625 C 242.234375 160.453125 242.234375 160.519531 242.226562 160.582031 C 242.226562 160.832031 242.226562 161.085938 242.226562 161.34375 C 242.226562 161.554688 242.21875 161.777344 242.207031 161.996094 C 242.207031 162.144531 242.207031 162.300781 242.199219 162.445312 C 242.191406 162.601562 242.191406 162.75 242.179688 162.90625 C 242.171875 163.082031 242.164062 163.253906 242.152344 163.421875 C 242.144531 163.558594 242.136719 163.6875 242.125 163.816406 C 242.117188 163.980469 242.109375 164.15625 242.097656 164.328125 C 242.097656 164.347656 242.089844 164.355469 242.089844 164.375 C 242.078125 164.523438 242.070312 164.679688 242.0625 164.824219 C 242.050781 164.871094 242.050781 164.917969 242.042969 164.960938 C 242.042969 165.007812 242.042969 165.054688 242.035156 165.101562 C 242.023438 165.246094 242.007812 165.394531 241.996094 165.53125 C 241.980469 165.667969 241.960938 165.816406 241.953125 165.953125 C 241.953125 166.007812 241.941406 166.066406 241.933594 166.109375 C 241.914062 166.292969 241.894531 166.476562 241.878906 166.660156 C 241.839844 166.992188 241.796875 167.3125 241.75 167.644531 C 241.738281 167.699219 241.730469 167.753906 241.722656 167.808594 C 241.675781 168.1875 241.613281 168.570312 241.546875 168.949219 C 241.546875 168.964844 241.546875 168.964844 241.546875 168.984375 L 241.527344 169.050781 C 241.382812 170.003906 241.199219 170.941406 240.996094 171.859375 C 240.988281 171.894531 240.976562 171.921875 240.96875 171.941406 C 240.859375 172.457031 240.738281 172.96875 240.601562 173.476562 C 240.554688 173.640625 240.519531 173.816406 240.472656 173.972656 C 240.445312 174.082031 240.417969 174.183594 240.382812 174.28125 C 240.269531 174.695312 240.160156 175.101562 240.03125 175.503906 C 239.941406 175.816406 239.839844 176.136719 239.738281 176.449219 C 239.738281 176.460938 239.730469 176.46875 239.730469 176.476562 C 239.617188 176.828125 239.5 177.175781 239.378906 177.507812 C 239.277344 177.816406 239.167969 178.113281 239.050781 178.414062 C 239.039062 178.460938 239.023438 178.515625 238.996094 178.5625 C 238.941406 178.738281 238.867188 178.921875 238.800781 179.085938 C 238.726562 179.289062 238.644531 179.480469 238.570312 179.683594 C 238.542969 179.726562 238.527344 179.785156 238.507812 179.839844 C 238.425781 180.023438 238.359375 180.195312 238.289062 180.371094 C 238.234375 180.5 238.175781 180.617188 238.121094 180.746094 C 237.984375 181.070312 237.847656 181.390625 237.699219 181.710938 C 237.589844 181.949219 237.480469 182.199219 237.371094 182.429688 C 237.339844 182.492188 237.3125 182.546875 237.285156 182.613281 C 237.1875 182.839844 237.074219 183.0625 236.957031 183.28125 C 236.847656 183.519531 236.726562 183.75 236.617188 183.980469 C 236.515625 184.183594 236.40625 184.382812 236.304688 184.578125 C 236.128906 184.90625 235.957031 185.230469 235.773438 185.550781 C 235.632812 185.808594 235.488281 186.0625 235.332031 186.320312 C 235.183594 186.597656 235.019531 186.871094 234.863281 187.128906 C 234.53125 187.660156 234.203125 188.195312 233.863281 188.71875 C 229.941406 194.714844 224.808594 199.839844 218.800781 203.742188 C 218.792969 203.742188 218.792969 203.742188 218.792969 203.742188 C 218.5625 203.886719 218.324219 204.035156 218.09375 204.191406 C 218.050781 204.21875 217.992188 204.253906 217.949219 204.273438 C 217.699219 204.421875 217.460938 204.578125 217.214844 204.722656 C 216.945312 204.886719 216.679688 205.042969 216.40625 205.199219 C 215.597656 205.660156 214.78125 206.109375 213.945312 206.53125 C 213.714844 206.640625 213.496094 206.753906 213.273438 206.863281 C 213.171875 206.917969 213.070312 206.964844 212.972656 207.011719 C 212.730469 207.121094 212.492188 207.230469 212.253906 207.339844 C 211.988281 207.46875 211.722656 207.589844 211.457031 207.707031 C 211.382812 207.746094 211.308594 207.773438 211.234375 207.800781 C 211.117188 207.855469 210.988281 207.910156 210.867188 207.964844 C 210.757812 208.011719 210.648438 208.054688 210.527344 208.09375 C 210.289062 208.203125 210.042969 208.304688 209.792969 208.40625 C 209.371094 208.570312 208.949219 208.734375 208.515625 208.882812 C 208.011719 209.074219 207.507812 209.25 207.003906 209.414062 C 206.992188 209.425781 206.992188 209.425781 206.984375 209.425781 C 206.746094 209.507812 206.507812 209.589844 206.257812 209.65625 C 206.011719 209.738281 205.761719 209.820312 205.515625 209.882812 C 205.292969 209.957031 205.054688 210.023438 204.835938 210.085938 C 204.660156 210.132812 204.488281 210.1875 204.320312 210.234375 C 204.101562 210.296875 203.878906 210.34375 203.652344 210.40625 C 203.652344 210.40625 203.640625 210.40625 203.632812 210.40625 C 203.613281 210.417969 203.59375 210.417969 203.566406 210.425781 C 203.402344 210.472656 203.226562 210.515625 203.054688 210.554688 C 202.824219 210.609375 202.59375 210.664062 202.375 210.71875 C 202.363281 210.71875 202.347656 210.71875 202.335938 210.730469 C 202.246094 210.746094 202.164062 210.765625 202.070312 210.785156 C 201.980469 210.8125 201.898438 210.820312 201.804688 210.847656 C 201.546875 210.902344 201.289062 210.957031 201.035156 211.003906 C 201.015625 211.011719 200.980469 211.023438 200.949219 211.023438 C 200.851562 211.039062 200.75 211.070312 200.640625 211.085938 C 200.484375 211.125 200.308594 211.152344 200.144531 211.179688 C 200.097656 211.1875 200.050781 211.195312 200.003906 211.195312 C 199.960938 211.207031 199.914062 211.214844 199.867188 211.226562 C 199.859375 211.234375 199.847656 211.234375 199.847656 211.234375 C 199.675781 211.261719 199.5 211.296875 199.335938 211.316406 C 199.152344 211.34375 198.96875 211.378906 198.785156 211.410156 C 198.664062 211.425781 198.554688 211.445312 198.433594 211.464844 C 198.417969 211.464844 198.398438 211.464844 198.390625 211.472656 C 198.277344 211.480469 198.179688 211.5 198.078125 211.519531 C 197.996094 211.527344 197.910156 211.535156 197.828125 211.546875 C 197.820312 211.546875 197.800781 211.546875 197.78125 211.546875 C 197.746094 211.5625 197.71875 211.5625 197.691406 211.5625 C 197.65625 211.5625 197.617188 211.574219 197.582031 211.574219 C 197.5 211.59375 197.40625 211.601562 197.316406 211.621094 C 197.203125 211.628906 197.085938 211.636719 196.964844 211.65625 C 196.78125 211.683594 196.589844 211.703125 196.398438 211.71875 C 196.3125 211.738281 196.222656 211.746094 196.128906 211.757812 C 196.039062 211.765625 195.945312 211.765625 195.863281 211.777344 C 195.746094 211.785156 195.632812 211.804688 195.515625 211.8125 C 195.378906 211.820312 195.230469 211.839844 195.09375 211.847656 C 195.011719 211.859375 194.925781 211.867188 194.855469 211.867188 C 194.671875 211.886719 194.476562 211.894531 194.292969 211.902344 C 194.128906 211.921875 193.953125 211.933594 193.789062 211.941406 C 193.585938 211.960938 193.382812 211.96875 193.171875 211.976562 C 193 211.988281 192.816406 211.988281 192.640625 211.996094 C 192.722656 211.996094 192.824219 211.996094 192.90625 211.988281 C 192.714844 211.996094 192.519531 212.003906 192.320312 212.003906 C 192.347656 212.003906 192.367188 212.003906 192.382812 212.003906 C 192.429688 212.003906 192.464844 212.003906 192.519531 212.003906 L 192.421875 212.003906 C 192.308594 212.003906 192.199219 212.003906 192.097656 212.003906 C 192 212.015625 191.886719 212.015625 191.785156 212.015625 L 191.777344 212.015625 C 191.722656 212.023438 191.667969 212.023438 191.621094 212.023438 C 191.335938 212.023438 191.0625 212.03125 190.785156 212.03125 C 190.519531 212.03125 190.253906 212.023438 189.996094 212.023438 C 189.933594 212.023438 189.867188 212.023438 189.804688 212.023438 C 189.648438 212.015625 189.492188 212.015625 189.335938 212.003906 C 189.269531 212.003906 189.214844 212.003906 189.160156 212.003906 C 189.023438 212.003906 188.875 211.996094 188.730469 211.988281 C 188.492188 211.988281 188.25 211.96875 188.003906 211.960938 C 187.765625 211.949219 187.515625 211.933594 187.277344 211.914062 C 187.175781 211.902344 187.066406 211.894531 186.964844 211.886719 C 186.890625 211.886719 186.820312 211.886719 186.746094 211.867188 C 186.679688 211.867188 186.609375 211.859375 186.535156 211.859375 C 186.441406 211.847656 186.351562 211.839844 186.257812 211.832031 C 186.113281 211.820312 185.972656 211.8125 185.828125 211.792969 C 185.523438 211.765625 185.222656 211.730469 184.917969 211.691406 C 184.632812 211.664062 184.347656 211.628906 184.0625 211.59375 L 184.046875 211.59375 C 184.035156 211.59375 184.027344 211.582031 184.019531 211.582031 C 183.953125 211.574219 183.898438 211.574219 183.835938 211.5625 C 183.613281 211.535156 183.386719 211.507812 183.164062 211.464844 C 183.089844 211.453125 183.015625 211.445312 182.945312 211.4375 C 182.933594 211.4375 182.917969 211.425781 182.90625 211.425781 C 182.90625 211.425781 182.90625 211.425781 182.898438 211.425781 C 182.890625 211.425781 182.878906 211.425781 182.863281 211.417969 C 182.675781 211.398438 182.492188 211.363281 182.308594 211.335938 C 182.125 211.308594 181.941406 211.269531 181.757812 211.242188 C 181.632812 211.214844 181.503906 211.195312 181.382812 211.167969 C 181.261719 211.152344 181.152344 211.132812 181.042969 211.105469 C 181.035156 211.105469 181.023438 211.105469 181.015625 211.105469 C 180.886719 211.078125 180.75 211.058594 180.621094 211.023438 C 180.574219 211.011719 180.527344 211.003906 180.484375 210.996094 C 180.246094 210.949219 180.003906 210.894531 179.777344 210.847656 C 179.34375 210.757812 178.921875 210.65625 178.5 210.546875 C 177.289062 210.25 176.09375 209.910156 174.917969 209.535156 C 174.597656 209.433594 174.285156 209.332031 173.972656 209.222656 C 173.863281 209.175781 173.742188 209.140625 173.632812 209.101562 C 173.347656 209.003906 173.074219 208.902344 172.796875 208.800781 C 172.621094 208.734375 172.4375 208.664062 172.273438 208.597656 C 172.171875 208.5625 172.070312 208.523438 171.980469 208.488281 C 171.695312 208.378906 171.417969 208.269531 171.144531 208.148438 C 171.144531 208.148438 171.136719 208.148438 171.136719 208.148438 C 170.941406 208.066406 170.742188 207.984375 170.546875 207.890625 C 170.289062 207.78125 170.035156 207.671875 169.785156 207.550781 C 169.472656 207.421875 169.160156 207.277344 168.859375 207.136719 C 168.574219 207 168.28125 206.863281 167.996094 206.714844 C 167.867188 206.652344 167.746094 206.597656 167.617188 206.523438 C 167.460938 206.449219 167.296875 206.367188 167.140625 206.285156 C 166.5625 205.992188 166.011719 205.6875 165.449219 205.375 C 165.222656 205.238281 164.984375 205.109375 164.753906 204.960938 C 162.511719 203.648438 160.382812 202.179688 158.378906 200.546875 C 158.167969 200.371094 157.957031 200.195312 157.738281 200.023438 C 157.710938 199.996094 157.683594 199.976562 157.65625 199.9375 C 157.417969 199.738281 157.167969 199.535156 156.929688 199.324219 C 156.5625 198.992188 156.195312 198.664062 155.828125 198.332031 C 155.542969 198.066406 155.257812 197.800781 154.984375 197.523438 C 154.863281 197.414062 154.746094 197.292969 154.625 197.183594 C 154.039062 196.597656 153.457031 196.007812 152.898438 195.394531 C 152.734375 195.210938 152.566406 195.027344 152.402344 194.851562 C 152.238281 194.660156 152.070312 194.476562 151.914062 194.28125 C 151.832031 194.191406 151.75 194.089844 151.667969 194 C 151.648438 193.980469 151.640625 193.960938 151.621094 193.941406 C 160.207031 189.976562 169.5 185.257812 179.078125 179.949219 C 179.757812 179.570312 180.429688 179.195312 181.097656 178.820312 C 174.585938 181.425781 168.25 183.785156 162.226562 185.871094 C 159.792969 186.714844 157.417969 187.515625 155.09375 188.269531 C 152.90625 188.964844 150.777344 189.636719 148.710938 190.25 C 148.691406 190.222656 148.675781 190.195312 148.65625 190.179688 L 148.648438 190.179688 C 148.664062 190.195312 148.683594 190.222656 148.703125 190.261719 C 148.628906 190.277344 148.546875 190.296875 148.480469 190.324219 C 145.589844 191.179688 142.816406 191.960938 140.179688 192.648438 C 138.628906 193.050781 137.132812 193.417969 135.679688 193.757812 C 121.578125 197.074219 112.136719 197.46875 110.757812 194.144531 C 109.382812 190.839844 116.296875 184.457031 128.554688 176.863281 C 129.824219 176.082031 131.136719 175.292969 132.503906 174.484375 C 134.828125 173.117188 137.304688 171.730469 139.90625 170.308594 C 139.914062 170.363281 139.921875 170.40625 139.933594 170.453125 C 136.683594 173.53125 134.476562 176.191406 133.542969 178.277344 C 133.203125 179.039062 133.027344 179.71875 133.027344 180.316406 C 133.027344 180.746094 133.121094 181.132812 133.304688 181.472656 C 133.632812 182.097656 134.257812 182.546875 135.15625 182.832031 C 136.996094 183.429688 139.980469 183.355469 143.882812 182.640625 C 143.882812 182.65625 143.882812 182.640625 143.882812 182.65625 C 143.953125 182.640625 144.011719 182.628906 144.082031 182.621094 C 147.976562 181.847656 152.75 180.507812 158.179688 178.644531 C 159.085938 178.332031 160.015625 178.003906 160.960938 177.664062 C 166.875 175.542969 173.476562 172.859375 180.546875 169.710938 C 181.363281 169.34375 182.183594 168.964844 183.007812 168.589844 L 182.824219 170.765625 L 182.503906 174.558594 C 182.695312 174.851562 183.082031 174.960938 183.421875 174.824219 L 186.753906 173.390625 C 186.78125 173.390625 186.800781 173.382812 186.808594 173.375 C 186.992188 173.273438 187.121094 173.109375 187.1875 172.925781 L 187.1875 172.90625 L 189.234375 166.175781 C 193.421875 164.640625 197.570312 163.042969 201.703125 161.398438 C 202.082031 161.363281 202.449219 161.566406 202.605469 161.933594 L 202.640625 162.050781 L 202.613281 162.796875 L 202.007812 177.027344 L 201.785156 182.117188 C 201.988281 182.59375 202.550781 182.8125 203.027344 182.613281 L 207.71875 180.601562 C 208.003906 180.480469 208.195312 180.234375 208.261719 179.96875 L 211.035156 168.828125 C 211.144531 168.570312 211.347656 168.34375 211.628906 168.222656 L 215.414062 166.605469 C 215.6875 166.488281 215.816406 166.175781 215.699219 165.898438 L 214.128906 162.226562 C 214.019531 161.960938 213.695312 161.832031 213.421875 161.949219 L 213.015625 162.125 C 212.90625 162.105469 212.816406 162.035156 212.761719 161.921875 L 212.75 161.90625 L 213.550781 158.71875 L 214.101562 156.476562 C 214.191406 156.304688 214.332031 156.164062 214.503906 156.066406 L 217.316406 154.84375 C 219.4375 154.21875 224.789062 150.363281 226.285156 147.175781 C 226.3125 147.046875 226.304688 146.910156 226.25 146.789062 C 226.195312 146.652344 226.101562 146.550781 225.984375 146.488281 C 222.660156 145.367188 216.167969 146.578125 214.246094 147.679688 L 211.429688 148.867188 L 211.410156 148.867188 L 211.390625 148.875 C 211.21875 148.929688 211.023438 148.929688 210.851562 148.875 L 205.992188 146.109375 L 205.984375 146.082031 C 205.9375 145.972656 205.945312 145.855469 206.011719 145.761719 L 206.425781 145.585938 C 206.699219 145.46875 206.820312 145.15625 206.707031 144.890625 L 205.136719 141.214844 C 205.027344 140.941406 204.707031 140.8125 204.441406 140.933594 L 200.648438 142.558594 C 200.363281 142.675781 200.058594 142.667969 199.804688 142.566406 L 197.5625 141.289062 L 189.839844 136.882812 L 189.792969 136.863281 L 189.75 136.835938 L 189.730469 136.828125 L 189.722656 136.828125 L 189.703125 136.816406 L 189.691406 136.808594 L 189.65625 136.808594 L 189.648438 136.800781 L 189.628906 136.800781 L 189.621094 136.789062 L 189.59375 136.789062 L 189.574219 136.78125 L 189.566406 136.78125 L 189.554688 136.773438 L 189.519531 136.773438 L 189.519531 136.761719 L 189.417969 136.761719 L 189.410156 136.753906 L 189.371094 136.753906 L 189.363281 136.761719 L 189.214844 136.761719 L 189.199219 136.773438 L 189.1875 136.773438 L 189.179688 136.78125 L 189.160156 136.78125 L 189.152344 136.789062 L 189.113281 136.789062 L 189.097656 136.800781 L 189.070312 136.808594 L 189.042969 136.808594 L 189.03125 136.816406 L 189.015625 136.828125 L 189.003906 136.835938 L 184.292969 138.847656 C 183.824219 139.039062 183.597656 139.601562 183.808594 140.078125 L 187.628906 143.4375 L 198.351562 152.824219 L 198.914062 153.320312 L 198.96875 153.421875 C 199.125 153.796875 199.011719 154.199219 198.730469 154.449219 C 194.6875 156.292969 190.667969 158.203125 186.671875 160.167969 L 180.371094 157 C 180.179688 156.898438 179.941406 156.890625 179.730469 156.972656 L 176.398438 158.40625 C 176.058594 158.542969 175.882812 158.910156 175.957031 159.261719 L 181.363281 163.59375 C 177.359375 164.761719 173.347656 165.863281 169.480469 166.84375 C 165.257812 167.9375 161.207031 168.882812 157.527344 169.617188 C 152.082031 170.71875 147.453125 171.363281 144.257812 171.328125 C 142.761719 171.269531 140.925781 170.308594 140.015625 168.894531 C 140.007812 168.882812 140.007812 168.875 139.996094 168.855469 C 139.554688 166.164062 139.328125 163.402344 139.328125 160.582031 C 139.328125 156.515625 139.804688 152.558594 140.695312 148.765625 C 143.558594 136.578125 150.757812 126.054688 160.574219 118.929688 C 160.996094 118.617188 161.421875 118.316406 161.859375 118.019531 C 167.71875 114.027344 174.441406 111.21875 181.695312 109.929688 L 181.695312 96.902344 C 156.230469 100.511719 135.550781 119.03125 128.8125 143.355469 C 127.277344 148.828125 126.472656 154.613281 126.472656 160.582031 C 126.472656 163.660156 126.691406 166.699219 127.105469 169.664062 C 127.167969 170.066406 127.222656 170.480469 127.296875 170.894531 C 127.363281 171.308594 127.433594 171.730469 127.507812 172.144531 C 127.519531 172.199219 127.527344 172.253906 127.546875 172.308594 L 126.230469 173.117188 C 124.632812 174.109375 123.148438 175.0625 121.75 175.992188 C 114.835938 180.582031 110.335938 184.464844 108.023438 187.902344 C 108.003906 187.929688 107.988281 187.957031 107.96875 187.984375 C 107.453125 188.765625 107.050781 189.515625 106.757812 190.25 C 105.609375 192.8125 105.222656 195.402344 105.726562 197.917969 C 108.015625 209.472656 128.132812 215.253906 151.097656 211.1875 C 151.117188 211.195312 151.136719 211.214844 151.152344 211.234375 C 151.703125 211.664062 152.273438 212.085938 152.84375 212.511719 C 152.960938 212.601562 153.082031 212.683594 153.210938 212.777344 C 153.652344 213.105469 154.109375 213.417969 154.570312 213.730469 C 154.773438 213.871094 154.964844 213.996094 155.15625 214.125 C 157.316406 215.566406 159.566406 216.882812 161.886719 218.054688 C 162.273438 218.238281 162.652344 218.421875 163.027344 218.609375 C 163.074219 218.636719 163.128906 218.652344 163.175781 218.679688 C 163.503906 218.835938 163.84375 218.992188 164.183594 219.148438 C 164.550781 219.324219 164.9375 219.488281 165.3125 219.644531 L 165.78125 219.847656 C 166.03125 219.957031 166.277344 220.058594 166.527344 220.160156 C 166.800781 220.269531 167.078125 220.378906 167.351562 220.488281 C 167.976562 220.730469 168.589844 220.96875 169.214844 221.179688 C 169.464844 221.269531 169.710938 221.363281 169.960938 221.453125 C 170.363281 221.582031 170.757812 221.71875 171.164062 221.839844 C 171.375 221.902344 171.566406 221.976562 171.777344 222.03125 C 172.449219 222.242188 173.136719 222.4375 173.816406 222.628906 C 174.09375 222.703125 174.367188 222.777344 174.644531 222.851562 C 174.871094 222.90625 175.109375 222.96875 175.351562 223.023438 C 175.671875 223.105469 176.003906 223.191406 176.332031 223.253906 C 176.652344 223.335938 176.984375 223.410156 177.316406 223.472656 C 177.847656 223.59375 178.378906 223.695312 178.914062 223.796875 C 179.335938 223.878906 179.757812 223.953125 180.171875 224.015625 C 180.851562 224.136719 181.53125 224.238281 182.210938 224.328125 C 182.457031 224.355469 182.714844 224.390625 182.960938 224.421875 C 183.238281 224.449219 183.511719 224.484375 183.789062 224.511719 C 184 224.539062 184.203125 224.558594 184.414062 224.574219 C 184.78125 224.613281 185.148438 224.648438 185.515625 224.675781 C 185.929688 224.714844 186.339844 224.742188 186.746094 224.761719 C 186.835938 224.777344 186.9375 224.777344 187.03125 224.777344 C 187.230469 224.796875 187.425781 224.804688 187.628906 224.816406 C 188.066406 224.832031 188.507812 224.851562 188.949219 224.871094 C 189.179688 224.871094 189.398438 224.871094 189.628906 224.878906 C 190.015625 224.886719 190.398438 224.886719 190.785156 224.886719 C 191.105469 224.886719 191.417969 224.886719 191.742188 224.878906 C 191.90625 224.878906 192.0625 224.878906 192.226562 224.871094 C 192.519531 224.871094 192.804688 224.859375 193.082031 224.851562 C 193.414062 224.832031 193.734375 224.824219 194.054688 224.804688 C 194.191406 224.796875 194.332031 224.796875 194.46875 224.777344 C 194.679688 224.777344 194.882812 224.761719 195.09375 224.75 C 195.285156 224.730469 195.488281 224.722656 195.679688 224.703125 C 196.210938 224.667969 196.753906 224.621094 197.289062 224.566406 C 197.582031 224.539062 197.882812 224.503906 198.179688 224.464844 C 198.628906 224.421875 199.070312 224.363281 199.507812 224.300781 C 199.65625 224.28125 199.792969 224.265625 199.933594 224.246094 C 200.234375 224.199219 200.527344 224.152344 200.824219 224.109375 C 201.078125 224.070312 201.320312 224.035156 201.566406 223.988281 C 201.824219 223.941406 202.089844 223.898438 202.347656 223.851562 C 202.761719 223.777344 203.183594 223.695312 203.59375 223.613281 C 204.175781 223.492188 204.753906 223.363281 205.332031 223.234375 C 205.414062 223.21875 205.488281 223.199219 205.570312 223.179688 C 205.644531 223.160156 205.71875 223.144531 205.800781 223.125 C 205.929688 223.097656 206.054688 223.0625 206.183594 223.023438 C 206.433594 222.96875 206.691406 222.90625 206.9375 222.839844 C 207.046875 222.8125 207.167969 222.785156 207.277344 222.757812 C 207.867188 222.601562 208.453125 222.4375 209.03125 222.261719 C 209.078125 222.242188 209.125 222.234375 209.167969 222.214844 L 209.253906 222.199219 C 209.804688 222.03125 210.335938 221.867188 210.878906 221.683594 L 210.886719 221.683594 C 210.933594 221.675781 210.96875 221.65625 211.023438 221.636719 C 211.078125 221.621094 211.132812 221.601562 211.199219 221.582031 C 211.375 221.527344 211.539062 221.464844 211.714844 221.40625 C 211.878906 221.34375 212.054688 221.289062 212.21875 221.234375 L 212.226562 221.234375 C 212.4375 221.152344 212.648438 221.078125 212.859375 220.996094 C 213.191406 220.875 213.523438 220.757812 213.851562 220.628906 C 213.898438 220.609375 213.933594 220.601562 213.972656 220.582031 C 214.117188 220.527344 214.257812 220.472656 214.402344 220.417969 C 214.613281 220.332031 214.835938 220.242188 215.046875 220.160156 C 215.109375 220.121094 215.183594 220.09375 215.257812 220.066406 C 215.550781 219.949219 215.855469 219.820312 216.15625 219.691406 C 216.167969 219.683594 216.175781 219.683594 216.195312 219.671875 C 216.269531 219.644531 216.339844 219.609375 216.414062 219.570312 C 216.691406 219.460938 216.964844 219.332031 217.242188 219.214844 C 217.351562 219.167969 217.460938 219.113281 217.570312 219.066406 C 217.664062 219.019531 217.765625 218.976562 217.855469 218.929688 C 217.910156 218.910156 217.964844 218.882812 218.011719 218.855469 C 218.1875 218.773438 218.359375 218.691406 218.535156 218.609375 C 218.636719 218.5625 218.730469 218.515625 218.828125 218.46875 C 219.140625 218.3125 219.464844 218.15625 219.777344 218 C 219.785156 218 219.785156 218 219.785156 218 C 220.097656 217.835938 220.410156 217.671875 220.730469 217.503906 C 221.042969 217.339844 221.355469 217.175781 221.667969 217 C 221.96875 216.835938 222.28125 216.660156 222.59375 216.484375 C 222.898438 216.3125 223.199219 216.136719 223.503906 215.953125 C 223.734375 215.816406 223.972656 215.679688 224.203125 215.53125 C 224.78125 215.183594 225.347656 214.824219 225.917969 214.449219 C 226.011719 214.394531 226.113281 214.328125 226.203125 214.265625 C 226.277344 214.21875 226.351562 214.171875 226.414062 214.117188 C 226.496094 214.070312 226.578125 214.015625 226.664062 213.960938 C 226.699219 213.933594 226.734375 213.90625 226.773438 213.886719 C 227.046875 213.703125 227.3125 213.519531 227.582031 213.328125 C 227.617188 213.308594 227.636719 213.28125 227.671875 213.261719 C 227.828125 213.152344 227.984375 213.042969 228.132812 212.941406 C 228.445312 212.722656 228.746094 212.492188 229.058594 212.261719 C 229.152344 212.207031 229.234375 212.132812 229.324219 212.070312 C 229.40625 212.015625 229.480469 211.960938 229.554688 211.894531 C 229.691406 211.792969 229.820312 211.691406 229.949219 211.59375 C 230.132812 211.445312 230.328125 211.308594 230.5 211.160156 C 230.675781 211.023438 230.851562 210.886719 231.015625 210.757812 C 231.21875 210.589844 231.410156 210.433594 231.601562 210.277344 C 231.703125 210.195312 231.796875 210.121094 231.886719 210.039062 C 232.082031 209.882812 232.273438 209.71875 232.457031 209.554688 C 232.613281 209.425781 232.769531 209.285156 232.925781 209.160156 C 233.027344 209.074219 233.125 208.984375 233.226562 208.902344 C 233.402344 208.753906 233.566406 208.597656 233.742188 208.433594 C 234 208.210938 234.246094 207.972656 234.503906 207.746094 C 234.789062 207.476562 235.074219 207.210938 235.359375 206.9375 C 235.496094 206.808594 235.625 206.679688 235.761719 206.550781 C 235.855469 206.449219 235.945312 206.367188 236.039062 206.265625 C 236.285156 206.027344 236.523438 205.789062 236.773438 205.539062 C 236.773438 205.523438 236.78125 205.523438 236.789062 205.511719 C 237.03125 205.265625 237.269531 205.027344 237.496094 204.777344 C 237.753906 204.511719 237.992188 204.246094 238.25 203.980469 C 238.261719 203.960938 238.277344 203.941406 238.296875 203.925781 C 238.507812 203.695312 238.710938 203.457031 238.921875 203.226562 L 238.921875 203.21875 C 239.039062 203.097656 239.152344 202.96875 239.261719 202.839844 C 239.316406 202.777344 239.371094 202.722656 239.425781 202.648438 L 239.617188 202.425781 C 239.628906 202.410156 239.636719 202.410156 239.648438 202.390625 C 239.785156 202.234375 239.914062 202.078125 240.042969 201.921875 C 240.28125 201.648438 240.519531 201.351562 240.75 201.070312 C 240.976562 200.785156 241.207031 200.5 241.4375 200.214844 C 241.511719 200.113281 241.585938 200.03125 241.648438 199.929688 C 241.683594 199.894531 241.710938 199.847656 241.75 199.8125 C 241.894531 199.617188 242.050781 199.414062 242.199219 199.222656 C 242.402344 198.949219 242.601562 198.679688 242.796875 198.40625 C 242.859375 198.324219 242.925781 198.230469 242.988281 198.148438 C 243.007812 198.121094 243.015625 198.09375 243.035156 198.074219 C 243.136719 197.945312 243.226562 197.808594 243.328125 197.671875 C 243.375 197.605469 243.421875 197.535156 243.464844 197.460938 C 243.550781 197.339844 243.640625 197.230469 243.714844 197.109375 C 243.777344 197.027344 243.84375 196.9375 243.898438 196.855469 C 244.117188 196.542969 244.328125 196.21875 244.539062 195.898438 C 244.640625 195.734375 244.753906 195.578125 244.851562 195.421875 C 244.953125 195.257812 245.054688 195.101562 245.15625 194.933594 C 245.238281 194.796875 245.320312 194.667969 245.402344 194.539062 C 245.542969 194.328125 245.660156 194.117188 245.789062 193.914062 C 245.816406 193.859375 245.855469 193.8125 245.882812 193.757812 C 246.066406 193.457031 246.25 193.144531 246.433594 192.832031 C 246.441406 192.824219 246.449219 192.804688 246.449219 192.796875 C 246.476562 192.757812 246.496094 192.722656 246.523438 192.683594 C 246.605469 192.527344 246.691406 192.390625 246.773438 192.246094 C 246.855469 192.097656 246.9375 191.949219 247.019531 191.804688 C 247.039062 191.757812 247.066406 191.722656 247.085938 191.675781 C 247.183594 191.5 247.285156 191.316406 247.378906 191.140625 C 247.664062 190.636719 247.929688 190.132812 248.1875 189.617188 C 248.222656 189.535156 248.261719 189.460938 248.296875 189.386719 C 248.472656 189.03125 248.644531 188.679688 248.8125 188.332031 C 248.839844 188.285156 248.855469 188.242188 248.882812 188.183594 C 248.882812 188.183594 248.882812 188.167969 248.894531 188.15625 C 249.023438 187.890625 249.152344 187.625 249.269531 187.359375 C 249.324219 187.230469 249.390625 187.101562 249.445312 186.972656 C 249.582031 186.652344 249.730469 186.339844 249.867188 186.019531 C 249.929688 185.871094 249.996094 185.734375 250.050781 185.585938 C 250.152344 185.339844 250.253906 185.082031 250.363281 184.84375 C 250.4375 184.648438 250.507812 184.476562 250.574219 184.28125 C 250.648438 184.097656 250.730469 183.914062 250.804688 183.730469 C 250.8125 183.703125 250.820312 183.675781 250.832031 183.648438 C 250.949219 183.335938 251.070312 183.023438 251.1875 182.710938 C 251.234375 182.554688 251.300781 182.402344 251.355469 182.246094 C 251.363281 182.214844 251.371094 182.179688 251.382812 182.152344 C 251.484375 181.878906 251.574219 181.601562 251.675781 181.324219 C 251.683594 181.296875 251.695312 181.269531 251.703125 181.242188 C 251.769531 181.050781 251.832031 180.875 251.894531 180.683594 C 251.960938 180.472656 252.023438 180.269531 252.089844 180.058594 C 252.21875 179.636719 252.355469 179.214844 252.476562 178.78125 C 252.539062 178.582031 252.601562 178.378906 252.660156 178.167969 C 252.722656 177.957031 252.777344 177.753906 252.832031 177.542969 C 252.90625 177.265625 252.980469 176.992188 253.054688 176.714844 C 253.089844 176.550781 253.136719 176.386719 253.183594 176.210938 C 253.273438 175.824219 253.375 175.429688 253.457031 175.027344 C 253.511719 174.804688 253.566406 174.578125 253.613281 174.339844 C 253.660156 174.144531 253.695312 173.953125 253.742188 173.757812 C 253.769531 173.601562 253.796875 173.457031 253.832031 173.300781 C 253.890625 173.023438 253.945312 172.75 254 172.464844 C 254 172.457031 254 172.457031 254 172.445312 C 254 172.4375 254 172.4375 254 172.4375 C 254.109375 171.921875 254.191406 171.410156 254.273438 170.894531 C 254.3125 170.691406 254.339844 170.480469 254.367188 170.269531 C 254.414062 169.957031 254.457031 169.644531 254.503906 169.332031 C 254.539062 169.03125 254.585938 168.710938 254.625 168.398438 C 254.660156 168.121094 254.6875 167.847656 254.714844 167.570312 C 254.742188 167.367188 254.753906 167.15625 254.78125 166.945312 C 254.796875 166.800781 254.808594 166.652344 254.824219 166.496094 C 254.835938 166.347656 254.851562 166.191406 254.863281 166.046875 C 254.863281 165.980469 254.871094 165.917969 254.878906 165.84375 C 254.878906 165.816406 254.878906 165.78125 254.890625 165.753906 C 254.917969 165.367188 254.945312 164.988281 254.964844 164.613281 C 254.980469 164.410156 254.992188 164.21875 255 164.015625 C 255 163.960938 255.007812 163.90625 255.007812 163.851562 C 255.019531 163.660156 255.027344 163.464844 255.035156 163.273438 C 255.046875 163.023438 255.054688 162.757812 255.0625 162.5 C 255.089844 161.867188 255.101562 161.226562 255.101562 160.582031 C 255.101562 159.757812 255.082031 158.9375 255.046875 158.121094 " clip-rule="nonzero"/></clipPath><clipPath id="3d49b50416"><path d="M 180.300781 22.109375 L 41.511719 160.894531 L 180.300781 299.679688 L 319.085938 160.894531 Z M 180.300781 22.109375 " clip-rule="nonzero"/></clipPath><linearGradient x1="-0.318911" gradientTransform="matrix(90.948515, 90.948515, -90.948515, 90.948515, 131.6149, 128.802427)" y1="0" x2="1.207122" gradientUnits="userSpaceOnUse" y2="0" id="6ba55e88ac"><stop stop-opacity="1" stop-color="rgb(31.799316%, 68.199158%, 89.7995%)" offset="0"/><stop stop-opacity="1" stop-color="rgb(31.799316%, 68.199158%, 89.7995%)" offset="0.125"/><stop stop-opacity="1" stop-color="rgb(31.799316%, 68.199158%, 89.7995%)" offset="0.1875"/><stop stop-opacity="1" stop-color="rgb(31.799316%, 68.199158%, 89.7995%)" offset="0.203125"/><stop stop-opacity="1" stop-color="rgb(31.599426%, 67.999268%, 89.7995%)" offset="0.207031"/><stop stop-opacity="1" stop-color="rgb(31.399536%, 67.799377%, 89.7995%)" offset="0.210937"/><stop stop-opacity="1" stop-color="rgb(31.208801%, 67.066956%, 89.408875%)" offset="0.214844"/><stop stop-opacity="1" stop-color="rgb(31.018066%, 66.33606%, 89.01825%)" offset="0.21875"/><stop stop-opacity="1" stop-color="rgb(30.627441%, 65.55481%, 88.446045%)" offset="0.222656"/><stop stop-opacity="1" stop-color="rgb(30.236816%, 64.77356%, 87.87384%)" offset="0.226562"/><stop stop-opacity="1" stop-color="rgb(29.8172%, 63.91449%, 87.464905%)" offset="0.230469"/><stop stop-opacity="1" stop-color="rgb(29.399109%, 63.05542%, 87.055969%)" offset="0.234375"/><stop stop-opacity="1" stop-color="rgb(29.185486%, 62.501526%, 86.665344%)" offset="0.238281"/><stop stop-opacity="1" stop-color="rgb(28.973389%, 61.949158%, 86.274719%)" offset="0.242187"/><stop stop-opacity="1" stop-color="rgb(28.782654%, 61.167908%, 85.884094%)" offset="0.246094"/><stop stop-opacity="1" stop-color="rgb(28.593445%, 60.386658%, 85.493469%)" offset="0.25"/><stop stop-opacity="1" stop-color="rgb(28.396606%, 59.799194%, 85.102844%)" offset="0.253906"/><stop stop-opacity="1" stop-color="rgb(28.199768%, 59.211731%, 84.712219%)" offset="0.257812"/><stop stop-opacity="1" stop-color="rgb(27.999878%, 58.436584%, 84.321594%)" offset="0.261719"/><stop stop-opacity="1" stop-color="rgb(27.799988%, 57.661438%, 83.930969%)" offset="0.265625"/><stop stop-opacity="1" stop-color="rgb(27.424622%, 57.029724%, 83.48999%)" offset="0.269531"/><stop stop-opacity="1" stop-color="rgb(27.049255%, 56.399536%, 83.049011%)" offset="0.273437"/><stop stop-opacity="1" stop-color="rgb(26.858521%, 55.633545%, 82.70874%)" offset="0.277344"/><stop stop-opacity="1" stop-color="rgb(26.667786%, 54.867554%, 82.368469%)" offset="0.28125"/><stop stop-opacity="1" stop-color="rgb(26.477051%, 54.277039%, 81.977844%)" offset="0.285156"/><stop stop-opacity="1" stop-color="rgb(26.286316%, 53.686523%, 81.587219%)" offset="0.289062"/><stop stop-opacity="1" stop-color="rgb(26.092529%, 53.09906%, 81.196594%)" offset="0.292969"/><stop stop-opacity="1" stop-color="rgb(25.898743%, 52.511597%, 80.805969%)" offset="0.296875"/><stop stop-opacity="1" stop-color="rgb(25.511169%, 51.966858%, 80.415344%)" offset="0.300781"/><stop stop-opacity="1" stop-color="rgb(25.123596%, 51.423645%, 80.024719%)" offset="0.304688"/><stop stop-opacity="1" stop-color="rgb(24.911499%, 50.854492%, 79.811096%)" offset="0.308594"/><stop stop-opacity="1" stop-color="rgb(24.699402%, 50.286865%, 79.598999%)" offset="0.3125"/><stop stop-opacity="1" stop-color="rgb(24.499512%, 49.604797%, 79.179382%)" offset="0.316406"/><stop stop-opacity="1" stop-color="rgb(24.299622%, 48.924255%, 78.761292%)" offset="0.320312"/><stop stop-opacity="1" stop-color="rgb(24.099731%, 48.353577%, 78.370667%)" offset="0.324219"/><stop stop-opacity="1" stop-color="rgb(23.899841%, 47.784424%, 77.980042%)" offset="0.328125"/><stop stop-opacity="1" stop-color="rgb(23.898315%, 47.241211%, 77.639771%)" offset="0.332031"/><stop stop-opacity="1" stop-color="rgb(23.898315%, 46.699524%, 77.2995%)" offset="0.335937"/><stop stop-opacity="1" stop-color="rgb(23.698425%, 46.308899%, 76.908875%)" offset="0.339844"/><stop stop-opacity="1" stop-color="rgb(23.498535%, 45.918274%, 76.51825%)" offset="0.34375"/><stop stop-opacity="1" stop-color="rgb(23.316956%, 45.326233%, 76.127625%)" offset="0.347656"/><stop stop-opacity="1" stop-color="rgb(23.136902%, 44.735718%, 75.737%)" offset="0.351562"/><stop stop-opacity="1" stop-color="rgb(23.095703%, 44.094849%, 75.495911%)" offset="0.355469"/><stop stop-opacity="1" stop-color="rgb(23.054504%, 43.455505%, 75.254822%)" offset="0.359375"/><stop stop-opacity="1" stop-color="rgb(22.875977%, 43.054199%, 74.864197%)" offset="0.363281"/><stop stop-opacity="1" stop-color="rgb(22.698975%, 42.654419%, 74.473572%)" offset="0.367187"/><stop stop-opacity="1" stop-color="rgb(22.549438%, 42.123413%, 74.082947%)" offset="0.371094"/><stop stop-opacity="1" stop-color="rgb(22.399902%, 41.592407%, 73.692322%)" offset="0.375"/><stop stop-opacity="1" stop-color="rgb(22.20459%, 41.201782%, 73.495483%)" offset="0.378906"/><stop stop-opacity="1" stop-color="rgb(22.010803%, 40.811157%, 73.298645%)" offset="0.382812"/><stop stop-opacity="1" stop-color="rgb(21.820068%, 40.235901%, 72.914124%)" offset="0.386719"/><stop stop-opacity="1" stop-color="rgb(21.629333%, 39.660645%, 72.529602%)" offset="0.390625"/><stop stop-opacity="1" stop-color="rgb(21.614075%, 39.204407%, 72.338867%)" offset="0.394531"/><stop stop-opacity="1" stop-color="rgb(21.598816%, 38.748169%, 72.148132%)" offset="0.398437"/><stop stop-opacity="1" stop-color="rgb(21.398926%, 38.357544%, 71.757507%)" offset="0.402344"/><stop stop-opacity="1" stop-color="rgb(21.199036%, 37.966919%, 71.366882%)" offset="0.40625"/><stop stop-opacity="1" stop-color="rgb(21.199036%, 37.626648%, 71.176147%)" offset="0.410156"/><stop stop-opacity="1" stop-color="rgb(21.199036%, 37.286377%, 70.986938%)" offset="0.414062"/><stop stop-opacity="1" stop-color="rgb(21.002197%, 36.895752%, 70.596313%)" offset="0.417969"/><stop stop-opacity="1" stop-color="rgb(20.805359%, 36.505127%, 70.205688%)" offset="0.421875"/><stop stop-opacity="1" stop-color="rgb(20.802307%, 36.114502%, 70.014954%)" offset="0.425781"/><stop stop-opacity="1" stop-color="rgb(20.799255%, 35.723877%, 69.824219%)" offset="0.429687"/><stop stop-opacity="1" stop-color="rgb(20.799255%, 35.333252%, 69.433594%)" offset="0.433594"/><stop stop-opacity="1" stop-color="rgb(20.799255%, 34.942627%, 69.042969%)" offset="0.4375"/><stop stop-opacity="1" stop-color="rgb(20.779419%, 34.501648%, 68.80188%)" offset="0.441406"/><stop stop-opacity="1" stop-color="rgb(20.761108%, 34.060669%, 68.560791%)" offset="0.445312"/><stop stop-opacity="1" stop-color="rgb(20.579529%, 33.670044%, 68.370056%)" offset="0.449219"/><stop stop-opacity="1" stop-color="rgb(20.399475%, 33.279419%, 68.179321%)" offset="0.453125"/><stop stop-opacity="1" stop-color="rgb(20.199585%, 33.088684%, 67.988586%)" offset="0.457031"/><stop stop-opacity="1" stop-color="rgb(19.999695%, 32.897949%, 67.799377%)" offset="0.460937"/><stop stop-opacity="1" stop-color="rgb(19.999695%, 32.554626%, 67.648315%)" offset="0.464844"/><stop stop-opacity="1" stop-color="rgb(19.999695%, 32.21283%, 67.498779%)" offset="0.46875"/><stop stop-opacity="1" stop-color="rgb(19.799805%, 31.82373%, 67.11731%)" offset="0.472656"/><stop stop-opacity="1" stop-color="rgb(19.599915%, 31.436157%, 66.73584%)" offset="0.476562"/><stop stop-opacity="1" stop-color="rgb(19.599915%, 31.018066%, 66.494751%)" offset="0.480469"/><stop stop-opacity="1" stop-color="rgb(19.599915%, 30.599976%, 66.255188%)" offset="0.484375"/><stop stop-opacity="1" stop-color="rgb(19.599915%, 30.386353%, 66.07666%)" offset="0.488281"/><stop stop-opacity="1" stop-color="rgb(19.599915%, 30.174255%, 65.899658%)" offset="0.492187"/><stop stop-opacity="1" stop-color="rgb(19.398499%, 29.983521%, 65.699768%)" offset="0.496094"/><stop stop-opacity="1" stop-color="rgb(19.198608%, 29.792786%, 65.499878%)" offset="0.5"/><stop stop-opacity="1" stop-color="rgb(19.198608%, 29.402161%, 65.304565%)" offset="0.503906"/><stop stop-opacity="1" stop-color="rgb(19.198608%, 29.011536%, 65.110779%)" offset="0.507813"/><stop stop-opacity="1" stop-color="rgb(19.198608%, 28.820801%, 64.920044%)" offset="0.515625"/><stop stop-opacity="1" stop-color="rgb(18.998718%, 28.388977%, 64.51416%)" offset="0.519531"/><stop stop-opacity="1" stop-color="rgb(18.798828%, 28.147888%, 64.299011%)" offset="0.523438"/><stop stop-opacity="1" stop-color="rgb(18.798828%, 27.961731%, 64.099121%)" offset="0.527344"/><stop stop-opacity="1" stop-color="rgb(18.798828%, 27.775574%, 63.899231%)" offset="0.53125"/><stop stop-opacity="1" stop-color="rgb(18.798828%, 27.630615%, 63.699341%)" offset="0.535156"/><stop stop-opacity="1" stop-color="rgb(18.798828%, 27.485657%, 63.499451%)" offset="0.539062"/><stop stop-opacity="1" stop-color="rgb(18.60199%, 27.095032%, 63.301086%)" offset="0.542969"/><stop stop-opacity="1" stop-color="rgb(18.405151%, 26.704407%, 63.104248%)" offset="0.546875"/><stop stop-opacity="1" stop-color="rgb(18.4021%, 26.513672%, 63.101196%)" offset="0.554688"/><stop stop-opacity="1" stop-color="rgb(18.577576%, 26.31073%, 62.89978%)" offset="0.558594"/><stop stop-opacity="1" stop-color="rgb(18.756104%, 26.298523%, 62.69989%)" offset="0.5625"/><stop stop-opacity="1" stop-color="rgb(18.577576%, 26.078796%, 62.548828%)" offset="0.566406"/><stop stop-opacity="1" stop-color="rgb(18.399048%, 25.860596%, 62.399292%)" offset="0.570312"/><stop stop-opacity="1" stop-color="rgb(18.399048%, 25.679016%, 62.199402%)" offset="0.574219"/><stop stop-opacity="1" stop-color="rgb(18.399048%, 25.498962%, 61.999512%)" offset="0.578125"/><stop stop-opacity="1" stop-color="rgb(18.399048%, 25.299072%, 61.799622%)" offset="0.582031"/><stop stop-opacity="1" stop-color="rgb(18.399048%, 25.099182%, 61.599731%)" offset="0.585938"/><stop stop-opacity="1" stop-color="rgb(18.399048%, 25.099182%, 61.407471%)" offset="0.59375"/><stop stop-opacity="1" stop-color="rgb(18.199158%, 24.899292%, 61.207581%)" offset="0.597656"/><stop stop-opacity="1" stop-color="rgb(17.999268%, 24.699402%, 61.199951%)" offset="0.601562"/><stop stop-opacity="1" stop-color="rgb(17.999268%, 24.499512%, 60.998535%)" offset="0.605469"/><stop stop-opacity="1" stop-color="rgb(17.999268%, 24.299622%, 60.798645%)" offset="0.609375"/><stop stop-opacity="1" stop-color="rgb(17.999268%, 24.099731%, 60.598755%)" offset="0.613281"/><stop stop-opacity="1" stop-color="rgb(17.999268%, 23.899841%, 60.398865%)" offset="0.617188"/><stop stop-opacity="1" stop-color="rgb(17.999268%, 23.698425%, 60.395813%)" offset="0.621094"/><stop stop-opacity="1" stop-color="rgb(17.999268%, 23.498535%, 60.392761%)" offset="0.625"/><stop stop-opacity="1" stop-color="rgb(17.999268%, 23.498535%, 60.195923%)" offset="0.628906"/><stop stop-opacity="1" stop-color="rgb(17.999268%, 23.498535%, 59.999084%)" offset="0.632812"/><stop stop-opacity="1" stop-color="rgb(17.999268%, 23.298645%, 59.814453%)" offset="0.636719"/><stop stop-opacity="1" stop-color="rgb(17.999268%, 23.098755%, 59.629822%)" offset="0.640625"/><stop stop-opacity="1" stop-color="rgb(17.999268%, 22.898865%, 59.614563%)" offset="0.644531"/><stop stop-opacity="1" stop-color="rgb(17.999268%, 22.698975%, 59.599304%)" offset="0.648438"/><stop stop-opacity="1" stop-color="rgb(18.191528%, 22.692871%, 59.399414%)" offset="0.652344"/><stop stop-opacity="1" stop-color="rgb(18.383789%, 22.686768%, 59.199524%)" offset="0.65625"/><stop stop-opacity="1" stop-color="rgb(18.191528%, 22.543335%, 59.199524%)" offset="0.671875"/><stop stop-opacity="1" stop-color="rgb(17.999268%, 22.20459%, 59.005737%)" offset="0.679688"/><stop stop-opacity="1" stop-color="rgb(17.999268%, 22.0047%, 58.805847%)" offset="0.6875"/><stop stop-opacity="1" stop-color="rgb(17.999268%, 21.998596%, 58.599854%)" offset="0.691406"/><stop stop-opacity="1" stop-color="rgb(17.999268%, 21.998596%, 58.399963%)" offset="0.695313"/><stop stop-opacity="1" stop-color="rgb(17.999268%, 21.994019%, 58.39386%)" offset="0.703125"/><stop stop-opacity="1" stop-color="rgb(17.999268%, 21.794128%, 58.19397%)" offset="0.71875"/><stop stop-opacity="1" stop-color="rgb(17.999268%, 21.598816%, 57.896423%)" offset="0.726562"/><stop stop-opacity="1" stop-color="rgb(17.999268%, 21.588135%, 57.696533%)" offset="0.734375"/><stop stop-opacity="1" stop-color="rgb(17.999268%, 21.388245%, 57.449341%)" offset="0.75"/><stop stop-opacity="1" stop-color="rgb(17.999268%, 21.199036%, 57.299805%)" offset="0.765625"/><stop stop-opacity="1" stop-color="rgb(17.999268%, 21.185303%, 57.299805%)" offset="0.773438"/><stop stop-opacity="1" stop-color="rgb(17.999268%, 20.985413%, 57.295227%)" offset="0.78125"/><stop stop-opacity="1" stop-color="rgb(17.999268%, 20.799255%, 57.095337%)" offset="0.796875"/><stop stop-opacity="1" stop-color="rgb(17.999268%, 20.799255%, 56.898499%)" offset="0.8125"/><stop stop-opacity="1" stop-color="rgb(17.999268%, 20.799255%, 56.898499%)" offset="0.875"/><stop stop-opacity="1" stop-color="rgb(17.999268%, 20.799255%, 56.898499%)" offset="1"/></linearGradient></defs><rect x="-37.5" width="450" fill="#ffffff" y="-37.499999" height="449.999989" fill-opacity="1"/><rect x="-37.5" width="450" fill="#ffffff" y="-37.499999" height="449.999989" fill-opacity="1"/><rect x="-37.5" width="450" fill="#ffffff" y="-37.499999" height="449.999989" fill-opacity="1"/><path fill="#e9eae9" d="M 237.847656 167.066406 C 235.164062 190.628906 215.164062 208.949219 190.886719 208.949219 C 177.359375 208.949219 165.15625 203.261719 156.542969 194.152344 C 165.148438 199.828125 175.449219 203.125 186.523438 203.125 C 210.152344 203.125 230.28125 188.09375 237.847656 167.066406 " fill-opacity="1" fill-rule="evenodd"/><path fill="#ffffff" d="M 224.429688 125.945312 L 211.8125 125.945312 L 211.8125 113.898438 C 216.414062 115.972656 220.667969 118.699219 224.429688 121.980469 L 224.429688 125.945312 " fill-opacity="1" fill-rule="evenodd"/><path fill="#ffffff" d="M 186.535156 211.859375 C 186.609375 211.859375 186.679688 211.867188 186.746094 211.867188 C 186.582031 211.867188 186.425781 211.847656 186.257812 211.832031 C 186.351562 211.839844 186.441406 211.847656 186.535156 211.859375 " fill-opacity="1" fill-rule="evenodd"/><path fill="#ffffff" d="M 189.335938 212.003906 C 189.492188 212.015625 189.648438 212.015625 189.804688 212.023438 C 189.59375 212.015625 189.371094 212.015625 189.160156 212.003906 C 189.214844 212.003906 189.269531 212.003906 189.335938 212.003906 " fill-opacity="1" fill-rule="evenodd"/><path fill="#ffffff" d="M 191.785156 212.015625 C 192 212.015625 192.199219 212.003906 192.421875 212.003906 C 192.402344 212.003906 192.394531 212.003906 192.382812 212.003906 C 192.183594 212.015625 191.980469 212.015625 191.785156 212.015625 " fill-opacity="1" fill-rule="evenodd"/><path fill="#ffffff" d="M 195.863281 211.777344 C 195.945312 211.765625 196.039062 211.765625 196.128906 211.757812 C 195.929688 211.777344 195.71875 211.792969 195.515625 211.8125 C 195.632812 211.804688 195.746094 211.785156 195.863281 211.777344 " fill-opacity="1" fill-rule="evenodd"/><path fill="#ffffff" d="M 197.582031 211.574219 C 197.617188 211.574219 197.65625 211.5625 197.691406 211.5625 C 197.5625 211.582031 197.441406 211.601562 197.316406 211.621094 C 197.40625 211.601562 197.5 211.59375 197.582031 211.574219 " fill-opacity="1" fill-rule="evenodd"/><path fill="#ffffff" d="M 198.785156 211.410156 C 198.96875 211.378906 199.152344 211.34375 199.335938 211.316406 C 199.03125 211.371094 198.738281 211.417969 198.433594 211.464844 C 198.554688 211.445312 198.664062 211.425781 198.785156 211.410156 " fill-opacity="1" fill-rule="evenodd"/><path fill="#ffffff" d="M 237.847656 167.066406 C 235.164062 190.628906 215.164062 208.949219 190.886719 208.949219 C 177.359375 208.949219 165.15625 203.261719 156.542969 194.152344 C 165.148438 199.828125 175.449219 203.125 186.523438 203.125 C 210.152344 203.125 230.28125 188.09375 237.847656 167.066406 " fill-opacity="1" fill-rule="evenodd"/><path fill="#45b5cd" d="M 207.609375 92.300781 L 207.609375 109.125 L 190.785156 109.125 L 190.785156 92.300781 L 207.609375 92.300781 " fill-opacity="1" fill-rule="evenodd"/><path fill="#72d1e8" d="M 224.429688 113.328125 L 224.429688 125.945312 L 211.8125 125.945312 L 211.8125 113.328125 L 224.429688 113.328125 " fill-opacity="1" fill-rule="evenodd"/><path fill="#45b5cd" d="M 237.046875 100.710938 L 237.046875 109.125 L 228.636719 109.125 L 228.636719 100.710938 L 237.046875 100.710938 " fill-opacity="1" fill-rule="evenodd"/><path fill="#b9de34" d="M 220.226562 92.300781 L 220.226562 79.683594 L 232.84375 79.683594 L 232.84375 92.300781 L 220.226562 92.300781 " fill-opacity="1" fill-rule="evenodd"/><g clip-path="url(#ad70180ce1)"><path fill="#b9de34" d="M 237.046875 67.386719 L 245.460938 67.386719 L 245.460938 75.800781 L 237.046875 75.800781 L 237.046875 67.386719 " fill-opacity="1" fill-rule="evenodd"/></g><path fill="#72d1e8" d="M 251.117188 121.207031 L 251.117188 132.191406 L 240.132812 132.191406 L 240.132812 121.207031 L 251.117188 121.207031 " fill-opacity="1" fill-rule="evenodd"/><g clip-path="url(#f5b66faa48)"><path fill="#b9de34" d="M 262.097656 110.511719 L 262.097656 117.828125 L 254.769531 117.828125 L 254.769531 110.511719 L 262.097656 110.511719 " fill-opacity="1" fill-rule="evenodd"/></g><path fill="#b9de34" d="M 254.769531 139.5 L 254.769531 146.816406 L 247.453125 146.828125 L 247.453125 139.5 L 254.769531 139.5 " fill-opacity="1" fill-rule="evenodd"/><path fill="#ddddda" d="M 237.847656 167.066406 C 235.164062 190.628906 215.164062 208.949219 190.886719 208.949219 C 177.359375 208.949219 165.15625 203.261719 156.542969 194.152344 C 165.148438 199.828125 175.449219 203.125 186.523438 203.125 C 210.152344 203.125 230.28125 188.09375 237.847656 167.066406 " fill-opacity="1" fill-rule="evenodd"/><g clip-path="url(#282a82f5b1)"><g clip-path="url(#a8021ec4b0)"><g clip-path="url(#591246a01d)"><g clip-path="url(#3d49b50416)"><path fill="url(#6ba55e88ac)" d="M 180.304688 22.105469 L 41.511719 160.894531 L 180.304688 299.683594 L 319.09375 160.894531 Z M 180.304688 22.105469 " fill-rule="nonzero"/></g></g></g></g><g fill="#004aad" fill-opacity="1"><g transform="translate(1.578128, 273.004655)"><g><path d="M 22.71875 -23.3125 L 22.71875 0 L 17.1875 0 L 17.1875 -9.34375 L 8 -9.34375 L 8 0 L 2.453125 0 L 2.453125 -23.3125 L 8 -23.3125 L 8 -14.078125 L 17.1875 -14.078125 L 17.1875 -23.3125 Z M 22.71875 -23.3125 "/></g></g></g><g fill="#004aad" fill-opacity="1"><g transform="translate(31.038554, 273.004655)"><g><path d="M 13.0625 0.515625 C 10.476562 0.515625 8.285156 -0.0078125 6.484375 -1.0625 C 4.679688 -2.113281 3.328125 -3.554688 2.421875 -5.390625 C 1.523438 -7.234375 1.078125 -9.3125 1.078125 -11.625 C 1.078125 -13.894531 1.523438 -15.941406 2.421875 -17.765625 C 3.328125 -19.597656 4.679688 -21.050781 6.484375 -22.125 C 8.285156 -23.195312 10.476562 -23.734375 13.0625 -23.734375 C 15.601562 -23.734375 17.773438 -23.195312 19.578125 -22.125 C 21.390625 -21.050781 22.75 -19.59375 23.65625 -17.75 C 24.570312 -15.914062 25.03125 -13.875 25.03125 -11.625 C 25.03125 -9.3125 24.570312 -7.234375 23.65625 -5.390625 C 22.75 -3.554688 21.394531 -2.113281 19.59375 -1.0625 C 17.800781 -0.0078125 15.625 0.515625 13.0625 0.515625 Z M 13.0625 -4.15625 C 15.050781 -4.15625 16.597656 -4.847656 17.703125 -6.234375 C 18.816406 -7.628906 19.375 -9.457031 19.375 -11.71875 C 19.375 -13.132812 19.125 -14.394531 18.625 -15.5 C 18.132812 -16.601562 17.410156 -17.472656 16.453125 -18.109375 C 15.503906 -18.742188 14.375 -19.0625 13.0625 -19.0625 C 11.039062 -19.0625 9.476562 -18.375 8.375 -17 C 7.28125 -15.625 6.734375 -13.832031 6.734375 -11.625 C 6.734375 -9.363281 7.273438 -7.550781 8.359375 -6.1875 C 9.453125 -4.832031 11.019531 -4.15625 13.0625 -4.15625 Z M 13.0625 -4.15625 "/></g></g></g><g fill="#004aad" fill-opacity="1"><g transform="translate(61.421478, 273.004655)"><g><path d="M 16.484375 -4.734375 L 16.484375 0 L 2.453125 0 L 2.453125 -23.3125 L 8 -23.3125 L 8 -4.734375 Z M 16.484375 -4.734375 "/></g></g></g><g fill="#004aad" fill-opacity="1"><g transform="translate(83.409679, 273.004655)"><g><path d="M 2.453125 -23.3125 L 8 -23.3125 L 8 0 L 2.453125 0 Z M 2.453125 -23.3125 "/></g></g></g><g fill="#004aad" fill-opacity="1"><g transform="translate(98.140896, 273.004655)"><g><path d="M 10.671875 -23.3125 C 14.929688 -23.3125 18.140625 -22.320312 20.296875 -20.34375 C 22.460938 -18.363281 23.546875 -15.457031 23.546875 -11.625 C 23.546875 -7.769531 22.46875 -4.867188 20.3125 -2.921875 C 18.164062 -0.972656 14.953125 0 10.671875 0 L 2.453125 0 L 2.453125 -23.3125 Z M 17.953125 -11.71875 C 17.953125 -14.113281 17.359375 -15.863281 16.171875 -16.96875 C 14.984375 -18.082031 13.148438 -18.640625 10.671875 -18.640625 L 8 -18.640625 L 8 -4.671875 L 10.671875 -4.671875 C 13.191406 -4.671875 15.035156 -5.226562 16.203125 -6.34375 C 17.367188 -7.46875 17.953125 -9.257812 17.953125 -11.71875 Z M 17.953125 -11.71875 "/></g></g></g><g fill="#004aad" fill-opacity="1"><g transform="translate(127.047823, 273.004655)"><g><path d="M 17.09375 -4.734375 L 8.09375 -4.734375 L 6.453125 0 L 0.921875 0 L 9.078125 -23.578125 L 16.078125 -23.578125 L 24.265625 0 L 18.734375 0 Z M 15.5 -9.46875 L 12.578125 -17.953125 L 9.6875 -9.46875 Z M 15.5 -9.46875 "/></g></g></g><g fill="#004aad" fill-opacity="1"><g transform="translate(156.508256, 273.004655)"><g><path d="M 13.953125 -9.015625 L 13.953125 0 L 8.546875 0 L 8.546875 -9.015625 L 0.609375 -23.3125 L 6.15625 -23.3125 L 11.25 -13.9375 L 16.390625 -23.3125 L 21.921875 -23.3125 Z M 13.953125 -9.015625 "/></g></g></g><g fill="#004aad" fill-opacity="1"><g transform="translate(183.324187, 273.004655)"><g/></g></g><g fill="#004aad" fill-opacity="1"><g transform="translate(194.365424, 273.004655)"><g><path d="M 13.34375 0.515625 C 9.25 0.515625 6.179688 -0.554688 4.140625 -2.703125 C 2.097656 -4.859375 1.078125 -7.820312 1.078125 -11.59375 C 1.078125 -13.882812 1.535156 -15.945312 2.453125 -17.78125 C 3.378906 -19.625 4.765625 -21.078125 6.609375 -22.140625 C 8.453125 -23.203125 10.695312 -23.734375 13.34375 -23.734375 C 14.425781 -23.734375 15.394531 -23.644531 16.25 -23.46875 C 17.101562 -23.300781 18.019531 -23.007812 19 -22.59375 L 19 -17.796875 C 17.257812 -18.640625 15.425781 -19.0625 13.5 -19.0625 C 12.164062 -19.0625 10.976562 -18.738281 9.9375 -18.09375 C 8.90625 -17.445312 8.101562 -16.5625 7.53125 -15.4375 C 6.957031 -14.3125 6.671875 -13.039062 6.671875 -11.625 C 6.671875 -9.363281 7.257812 -7.550781 8.4375 -6.1875 C 9.613281 -4.832031 11.25 -4.15625 13.34375 -4.15625 C 14.332031 -4.15625 15.296875 -4.300781 16.234375 -4.59375 C 17.179688 -4.894531 18.175781 -5.320312 19.21875 -5.875 L 20.84375 -1.359375 C 19.65625 -0.742188 18.40625 -0.28125 17.09375 0.03125 C 15.78125 0.351562 14.53125 0.515625 13.34375 0.515625 Z M 13.34375 0.515625 "/></g></g></g><g fill="#004aad" fill-opacity="1"><g transform="translate(220.566373, 273.004655)"><g><path d="M 18.015625 -4.421875 L 18.015625 0 L 2.453125 0 L 2.453125 -23.3125 L 17.859375 -23.3125 L 17.859375 -18.875 L 8 -18.875 L 8 -13.9375 L 16.328125 -13.9375 L 16.328125 -9.5 L 8 -9.5 L 8 -4.421875 Z M 18.015625 -4.421875 "/></g></g></g><g fill="#004aad" fill-opacity="1"><g transform="translate(244.707065, 273.004655)"><g><path d="M 22.71875 -23.3125 L 22.71875 0 L 16.359375 0 L 8 -14.328125 L 8 0 L 2.453125 0 L 2.453125 -23.3125 L 8.828125 -23.3125 L 17.1875 -8.984375 L 17.1875 -23.3125 Z M 22.71875 -23.3125 "/></g></g></g><g fill="#004aad" fill-opacity="1"><g transform="translate(274.167497, 273.004655)"><g><path d="M 19.5 -18.578125 L 13.125 -18.578125 L 13.125 0 L 7.59375 0 L 7.59375 -18.578125 L 1.234375 -18.578125 L 1.234375 -23.3125 L 19.5 -23.3125 Z M 19.5 -18.578125 "/></g></g></g><g fill="#004aad" fill-opacity="1"><g transform="translate(299.169197, 273.004655)"><g><path d="M 10.578125 -8.421875 L 8 -8.421875 L 8 0 L 2.453125 0 L 2.453125 -23.3125 L 11.90625 -23.3125 C 17.820312 -23.3125 20.78125 -20.820312 20.78125 -15.84375 C 20.78125 -12.289062 19.234375 -10.015625 16.140625 -9.015625 L 21.703125 0 L 15.5625 0 Z M 8 -13.09375 L 11.90625 -13.09375 C 14.09375 -13.09375 15.1875 -14.007812 15.1875 -15.84375 C 15.1875 -16.800781 14.921875 -17.503906 14.390625 -17.953125 C 13.859375 -18.410156 13.03125 -18.640625 11.90625 -18.640625 L 8 -18.640625 Z M 8 -13.09375 "/></g></g></g><g fill="#004aad" fill-opacity="1"><g transform="translate(326.231131, 273.004655)"><g><path d="M 17.09375 -4.734375 L 8.09375 -4.734375 L 6.453125 0 L 0.921875 0 L 9.078125 -23.578125 L 16.078125 -23.578125 L 24.265625 0 L 18.734375 0 Z M 15.5 -9.46875 L 12.578125 -17.953125 L 9.6875 -9.46875 Z M 15.5 -9.46875 "/></g></g></g><g fill="#004aad" fill-opacity="1"><g transform="translate(355.691564, 273.004655)"><g><path d="M 16.484375 -4.734375 L 16.484375 0 L 2.453125 0 L 2.453125 -23.3125 L 8 -23.3125 L 8 -4.734375 Z M 16.484375 -4.734375 "/></g></g></g><path stroke-linecap="butt" transform="matrix(0.749994, -0.00299998, 0.00299998, 0.749994, -0.00599546, 231.564388)" fill="none" stroke-linejoin="miter" d="M 0.0000040201 1.997499 L 500.004037 1.997499 " stroke="#01316d" stroke-width="4" stroke-opacity="1" stroke-miterlimit="4"/><path stroke-linecap="butt" transform="matrix(0.749994, -0.00299998, 0.00299998, 0.749994, 0.00000448813, 286.428204)" fill="none" stroke-linejoin="miter" d="M 0.00240275 2.002003 L 500.006436 2.002003 " stroke="#01316d" stroke-width="4" stroke-opacity="1" stroke-miterlimit="4"/></svg>